<svg width="17" height="17" viewBox="0 0 17 17" fill="none" xmlns="http://www.w3.org/2000/svg">
<g clip-path="url(#clip0_104_4718)">
<path d="M8.0918 0.556641C12.5101 0.556641 16.0918 4.13836 16.0918 8.55664C16.0918 12.9749 12.5101 16.5566 8.0918 16.5566C3.67352 16.5566 0.0917969 12.9749 0.0917969 8.55664C0.0917969 4.13836 3.67352 0.556641 8.0918 0.556641Z" fill="#FCFCFC"/>
<path d="M3.39642 9.13635L2.52686 10.7139L3.39642 12.2668L4.26598 10.7139L3.39642 9.13635Z" fill="#A2001D"/>
<path d="M1.65716 9.13635L0.787598 10.7139L1.65716 12.2668L2.52672 10.7139L1.65716 9.13635Z" fill="#A2001D"/>
<path d="M3.39642 4.84643L2.52686 6.42402L3.39642 7.97687L4.26598 6.42402L3.39642 4.84643Z" fill="#A2001D"/>
<path d="M1.65716 4.84643L0.787598 6.42402L1.65716 7.97687L2.52672 6.42402L1.65716 4.84643Z" fill="#A2001D"/>
<path d="M4.26573 15.0037L4.01954 15.4434C3.57798 15.1817 3.16382 14.8788 2.78223 14.54L3.39616 13.4262L4.26573 15.0037Z" fill="#A2001D"/>
<path d="M3.39632 3.68707L2.77588 2.57907C3.15713 2.23976 3.571 1.93638 4.01238 1.67423L4.26591 2.1342L3.39632 3.68707Z" fill="#A2001D"/>
<path d="M4.96143 6.46967V1.1927C5.92296 0.783415 6.98086 0.556634 8.09186 0.556634C11.5316 0.556634 14.4639 2.72763 15.5943 5.77404L4.96143 6.46967Z" fill="#6DA544"/>
<path d="M15.5943 5.77405C15.9159 6.6407 16.0919 7.57808 16.0919 8.55664C16.0919 12.9749 12.5101 16.5566 8.09186 16.5566C6.98096 16.5566 5.92296 16.33 4.96143 15.9208V5.77402H15.5943V5.77405Z" fill="#A2001D"/>
</g>
<defs>
<clipPath id="clip0_104_4718">
<rect width="16" height="16" fill="white" transform="matrix(1 0 0 -1 0.0917969 16.5566)"/>
</clipPath>
</defs>
</svg>
