<svg width="24" height="24" viewBox="0 0 24 24" fill="none" xmlns="http://www.w3.org/2000/svg">
<g clip-path="url(#clip0_2182_5015)">
<path d="M12 24C18.6274 24 24 18.6274 24 12C24 5.37258 18.6274 0 12 0C5.37258 0 0 5.37258 0 12C0 18.6274 5.37258 24 12 24Z" fill="#FCFCFC"/>
<path d="M4.95766 11.1302L3.65332 8.76384L4.95766 6.43457L6.26201 8.76384L4.95766 11.1302Z" fill="#A2001D"/>
<path d="M2.34878 11.1302L1.04443 8.76384L2.34878 6.43457L3.65312 8.76384L2.34878 11.1302Z" fill="#A2001D"/>
<path d="M4.95766 17.5648L3.65332 15.1984L4.95766 12.8691L6.26201 15.1984L4.95766 17.5648Z" fill="#A2001D"/>
<path d="M2.34878 17.5648L1.04443 15.1984L2.34878 12.8691L3.65312 15.1984L2.34878 17.5648Z" fill="#A2001D"/>
<path d="M6.26236 2.32936L5.89308 1.66992C5.23073 2.06236 4.6095 2.51672 4.03711 3.02503L4.95802 4.6957L6.26236 2.32936Z" fill="#A2001D"/>
<path d="M4.95751 19.3047L4.02686 20.9667C4.59873 21.4757 5.21954 21.9307 5.88161 22.324L6.2619 21.634L4.95751 19.3047Z" fill="#A2001D"/>
<path d="M7.30371 15.1309V23.0463C8.74601 23.6602 10.3329 24.0004 11.9994 24.0004C17.1589 24.0004 21.5575 20.7439 23.253 16.1743L7.30371 15.1309Z" fill="#6DA544"/>
<path d="M23.253 16.1739C23.7354 14.8739 23.9994 13.4678 23.9994 12C23.9994 5.37263 18.6267 0 11.9994 0C10.333 0 8.74601 0.339984 7.30371 0.953813V16.1739H23.253V16.1739Z" fill="#A2001D"/>
</g>
<defs>
<clipPath id="clip0_2182_5015">
<rect width="24" height="24" fill="white"/>
</clipPath>
</defs>
</svg>
