<svg width="17" height="17" viewBox="0 0 17 17" fill="none" xmlns="http://www.w3.org/2000/svg">
<g clip-path="url(#clip0_104_4730)">
<path d="M8.18652 16.1364C12.6048 16.1364 16.1865 12.5546 16.1865 8.13635C16.1865 3.71807 12.6048 0.136353 8.18652 0.136353C3.76825 0.136353 0.186523 3.71807 0.186523 8.13635C0.186523 12.5546 3.76825 16.1364 8.18652 16.1364Z" fill="#F0F0F0"/>
<path d="M15.6889 10.9189C16.0105 10.0523 16.1865 9.11492 16.1865 8.13635C16.1865 7.15779 16.0105 6.22042 15.6889 5.35376H0.684117C0.362555 6.22042 0.186523 7.15779 0.186523 8.13635C0.186523 9.11492 0.362555 10.0523 0.684117 10.9189L8.18652 11.6146L15.6889 10.9189Z" fill="#0052B4"/>
<path d="M8.18649 16.1364C11.6262 16.1364 14.5586 13.9654 15.6889 10.9189H0.684082C1.81443 13.9654 4.74677 16.1364 8.18649 16.1364Z" fill="#D80027"/>
</g>
<defs>
<clipPath id="clip0_104_4730">
<rect width="16" height="16" fill="white" transform="translate(0.186523 0.136353)"/>
</clipPath>
</defs>
</svg>
