<svg width="20" height="20" viewBox="0 0 20 20" fill="none" xmlns="http://www.w3.org/2000/svg">
<path d="M17.5 9.99987C17.5002 11.9717 16.7239 13.8642 15.3391 15.2679C13.9543 16.6715 12.0724 17.4734 10.1008 17.4999H10C8.08456 17.5046 6.24085 16.7716 4.85156 15.453C4.7919 15.3966 4.74394 15.3289 4.71042 15.254C4.67689 15.179 4.65846 15.0982 4.65618 15.0161C4.65389 14.934 4.6678 14.8523 4.6971 14.7756C4.7264 14.6989 4.77053 14.6287 4.82695 14.569C4.88338 14.5093 4.95101 14.4614 5.02597 14.4279C5.10093 14.3943 5.18176 14.3759 5.26385 14.3736C5.34593 14.3713 5.42767 14.3852 5.50438 14.4145C5.58109 14.4438 5.65128 14.488 5.71094 14.5444C6.60453 15.3871 7.72663 15.9479 8.93705 16.1566C10.1475 16.3653 11.3926 16.2127 12.5168 15.7179C13.641 15.2231 14.5945 14.408 15.2582 13.3745C15.9218 12.3409 16.2663 11.1347 16.2484 9.90654C16.2305 8.67838 15.8512 7.48271 15.1577 6.4689C14.4642 5.45509 13.4874 4.66808 12.3493 4.2062C11.2112 3.74431 9.96216 3.62802 8.75832 3.87186C7.55447 4.11569 6.44916 4.70884 5.58047 5.57721C5.57409 5.58411 5.5673 5.59064 5.56016 5.59674L3.48359 7.49987H5.625C5.79076 7.49987 5.94973 7.56572 6.06694 7.68293C6.18415 7.80014 6.25 7.95911 6.25 8.12487C6.25 8.29063 6.18415 8.4496 6.06694 8.56681C5.94973 8.68402 5.79076 8.74987 5.625 8.74987H1.875C1.70924 8.74987 1.55027 8.68402 1.43306 8.56681C1.31585 8.4496 1.25 8.29063 1.25 8.12487V4.37487C1.25 4.20911 1.31585 4.05014 1.43306 3.93293C1.55027 3.81572 1.70924 3.74987 1.875 3.74987C2.04076 3.74987 2.19973 3.81572 2.31694 3.93293C2.43415 4.05014 2.5 4.20911 2.5 4.37487V6.70299L4.70703 4.68737C5.75702 3.64146 7.09333 2.93008 8.54729 2.64302C10.0012 2.35596 11.5077 2.50609 12.8764 3.07447C14.2451 3.64284 15.4147 4.60398 16.2376 5.83654C17.0605 7.06911 17.4998 8.51785 17.5 9.99987Z" fill="white"/>
</svg>
