<svg width="24" height="24" viewBox="0 0 24 24" fill="none" xmlns="http://www.w3.org/2000/svg">
<path fill-rule="evenodd" clip-rule="evenodd" d="M22.56 12.25C22.56 11.47 22.49 10.72 22.36 10H12V14.255H17.92C17.665 15.63 16.89 16.795 15.725 17.575V20.335H19.28C21.36 18.42 22.56 15.6 22.56 12.25Z" fill="#4285F4"/>
<path fill-rule="evenodd" clip-rule="evenodd" d="M11.9989 22.9998C14.9689 22.9998 17.4589 22.0148 19.2789 20.3348L15.7239 17.5748C14.7389 18.2348 13.4789 18.6248 11.9989 18.6248C9.13395 18.6248 6.70895 16.6898 5.84395 14.0898H2.16895V16.9398C3.97895 20.5348 7.69895 22.9998 11.9989 22.9998Z" fill="#34A853"/>
<path fill-rule="evenodd" clip-rule="evenodd" d="M5.845 14.0901C5.625 13.4301 5.5 12.7251 5.5 12.0001C5.5 11.2751 5.625 10.5701 5.845 9.91006V7.06006H2.17C1.425 8.54506 1 10.2251 1 12.0001C1 13.7751 1.425 15.4551 2.17 16.9401L5.845 14.0901Z" fill="#FBBC05"/>
<path fill-rule="evenodd" clip-rule="evenodd" d="M11.9989 5.375C13.6139 5.375 15.0639 5.93 16.2039 7.02L19.3589 3.865C17.4539 2.09 14.9639 1 11.9989 1C7.69895 1 3.97895 3.465 2.16895 7.06L5.84395 9.91C6.70895 7.31 9.13395 5.375 11.9989 5.375Z" fill="#EA4335"/>
</svg>
