<svg width="24" height="24" viewBox="0 0 24 24" fill="none" xmlns="http://www.w3.org/2000/svg">
<path d="M20.2299 11.0785C20.2015 10.9583 20.1438 10.8469 20.062 10.7544C19.9803 10.6618 19.8769 10.5908 19.7611 10.5478L14.3602 8.5219L15.7345 1.64721C15.7657 1.48748 15.744 1.32197 15.6728 1.17564C15.6016 1.0293 15.4847 0.910102 15.3398 0.836016C15.1949 0.76193 15.0299 0.73698 14.8696 0.764931C14.7093 0.792882 14.5624 0.872217 14.4511 0.990965L3.95111 12.241C3.86583 12.3308 3.80413 12.4404 3.77154 12.5599C3.73895 12.6795 3.73647 12.8052 3.76432 12.9259C3.79218 13.0466 3.84951 13.1585 3.93118 13.2517C4.01285 13.3448 4.11632 13.4163 4.23236 13.4597L9.63517 15.4857L8.26454 22.3528C8.23342 22.5126 8.2551 22.6781 8.3263 22.8244C8.3975 22.9708 8.51436 23.09 8.65926 23.164C8.80415 23.2381 8.9692 23.2631 9.12952 23.2351C9.28983 23.2072 9.43671 23.1278 9.54798 23.0091L20.048 11.7591C20.1317 11.6692 20.1921 11.5601 20.2238 11.4415C20.2555 11.3228 20.2576 11.1981 20.2299 11.0785ZM10.253 20.0625L11.2345 15.1519C11.2697 14.9777 11.2418 14.7968 11.156 14.6412C11.0701 14.4857 10.9319 14.3656 10.7658 14.3025L5.81204 12.4416L13.7452 3.94221L12.7645 8.85284C12.7294 9.027 12.7572 9.20797 12.8431 9.36352C12.9289 9.51907 13.0672 9.6391 13.2333 9.70222L18.1833 11.5585L10.253 20.0625Z" fill="#A7ADB2"/>
</svg>
