<svg width="24" height="24" viewBox="0 0 24 24" fill="none" xmlns="http://www.w3.org/2000/svg">
<path d="M20.0481 11.7618L9.54814 23.0118C9.43687 23.1306 9.28999 23.2099 9.12967 23.2379C8.96936 23.2658 8.8043 23.2409 8.65941 23.1668C8.51452 23.0927 8.39766 22.9735 8.32645 22.8272C8.25525 22.6808 8.23358 22.5153 8.2647 22.3556L9.63907 15.4809L4.23626 13.4521C4.12023 13.4087 4.01675 13.3373 3.93508 13.2441C3.85341 13.151 3.79609 13.039 3.76823 12.9183C3.74037 12.7976 3.74285 12.6719 3.77545 12.5524C3.80804 12.4328 3.86973 12.3233 3.95501 12.2334L14.455 0.983396C14.5663 0.864649 14.7132 0.785313 14.8735 0.757362C15.0338 0.729411 15.1988 0.754362 15.3437 0.828448C15.4886 0.902534 15.6055 1.02174 15.6767 1.16807C15.7479 1.3144 15.7696 1.47992 15.7384 1.63965L14.3603 8.52183L19.7631 10.5478C19.8783 10.5915 19.981 10.6629 20.062 10.7556C20.143 10.8484 20.2 10.9597 20.2278 11.0797C20.2556 11.1998 20.2534 11.3248 20.2214 11.4437C20.1894 11.5627 20.1286 11.6719 20.0444 11.7618H20.0481Z" fill="#A7ADB2"/>
</svg>
