<svg width="263" height="82" viewBox="0 0 263 82" fill="none" xmlns="http://www.w3.org/2000/svg">
<path fill-rule="evenodd" clip-rule="evenodd" d="M238.302 5.87598H24.2675H24.0627L5.69043 47.5341H19.4088C19.8964 46.3081 25.3377 34.0588 35.7329 10.7863C35.8807 10.3054 36.3244 10.0647 37.0638 10.0647H84.7023C87.0684 10.0647 89.0463 10.5273 90.6363 11.452C92.5217 12.6358 93.4644 14.3194 93.4644 16.5021C93.4644 18.87 92.4478 21.1267 90.4144 23.2726C88.7136 25.0483 86.6248 26.5098 84.1475 27.6567C85.5895 28.9515 86.3103 30.5793 86.3103 32.5402C86.3103 33.835 85.9777 35.2041 85.3123 36.6468C83.8702 39.8656 81.467 42.5847 78.1026 44.8046C76.1455 46.0822 74.1762 46.9916 72.1944 47.5341H90.53C91.0175 46.3081 96.4585 34.0588 106.854 10.7863C107.076 10.3054 107.519 10.0647 108.185 10.0647H155.823C158.263 10.0647 160.241 10.5086 161.757 11.3967C163.68 12.5435 164.641 14.227 164.641 16.4466C164.641 19.3323 163.31 22.0702 160.648 24.6598C156.618 28.6927 151.496 30.709 145.286 30.709H124.157C123.677 30.709 123.436 30.5423 123.436 30.2095C123.436 30.0986 123.454 30.0245 123.491 29.9874L125.765 24.8264C125.913 24.3453 126.356 24.1049 127.096 24.1049H134.25C135.655 24.1049 137.042 23.7906 138.41 23.1615C139.962 22.4215 140.979 21.4782 141.46 20.3313C141.644 19.7761 141.737 19.3693 141.737 19.1105C141.737 17.4455 140.349 16.6132 137.578 16.6132H126.208L112.511 47.4128C112.491 47.4551 112.47 47.4954 112.447 47.5341H160.935C160.941 47.5004 160.945 47.4598 160.945 47.4128L163.218 42.3074C163.44 41.8267 163.884 41.586 164.549 41.586H189.173L175.308 28.933C172.646 26.5653 171.315 24.1419 171.315 21.6631C171.315 18.8514 172.905 16.3912 176.085 14.2824C177.342 13.4683 178.682 12.7656 180.105 12.1736C181.529 11.5815 183.072 11.1008 184.736 10.7307C186.843 10.2866 188.951 10.0647 191.058 10.0647H218.802C219.282 10.0647 219.522 10.2311 219.522 10.5643C219.522 10.6752 219.504 10.749 219.467 10.7863L217.193 15.9472C216.971 16.3912 216.527 16.6132 215.862 16.6132H197.214L210.912 29.4322C214.313 32.6142 216.014 35.5555 216.014 38.2563C216.014 41.9931 213.056 44.7121 207.141 46.4141C205.537 46.8833 203.833 47.2566 202.031 47.5341H220.019L238.302 5.87598ZM70.6159 19.1105C70.6159 19.4434 70.5234 19.8504 70.3385 20.3313C69.784 21.5154 68.7673 22.4587 67.2883 23.1615C65.9204 23.7906 64.5314 24.1049 63.1289 24.1049H55.9749C55.275 24.1049 54.8103 24.3453 54.5884 24.8264L52.3148 29.9874C52.3148 30.0614 52.2962 30.1354 52.2594 30.2095C52.2594 30.5423 52.5181 30.709 53.0358 30.709H60.1901C62.4081 30.709 63.5173 31.7077 63.5173 33.7056C63.5173 35.6666 62.6485 37.4794 60.9108 39.1441C59.1731 40.7719 57.3219 41.586 55.3648 41.586H43.9961L55.0874 16.6132H66.4566C69.2293 16.6132 70.6159 17.4455 70.6159 19.1105Z" fill="#008C92"/>
<path d="M106.059 65.1714C106.279 65.1714 106.424 65.0961 106.493 64.9454L107.206 63.3461C107.206 63.3113 107.212 63.2882 107.223 63.2766C107.223 63.1723 107.142 63.1201 106.98 63.1201H99.0758C98.2767 63.1201 97.8771 62.7841 97.8771 62.1119C97.8771 61.6484 98.1029 60.9183 98.5546 59.9216L99.3885 58.0268C99.7822 57.1229 100.164 56.4856 100.535 56.1147C101.056 55.5699 101.728 55.2976 102.55 55.2976H110.454C110.674 55.2976 110.813 55.2281 110.871 55.089L111.583 53.4724C111.595 53.4608 111.601 53.4377 111.601 53.4028C111.601 53.2986 111.526 53.2463 111.375 53.2463H99.6144C97.9004 53.2463 96.2732 53.8489 94.7329 55.0543C93.3316 56.1436 92.2545 57.5286 91.5018 59.2089C91.05 60.2056 90.8242 61.1327 90.8242 61.9902C90.8242 63.0101 91.1485 63.8097 91.797 64.3891C92.3993 64.9106 93.2332 65.1714 94.2986 65.1714H106.059ZM108.509 59.713C108.729 59.713 108.862 59.6377 108.908 59.487C109.406 58.4093 109.655 57.8529 109.655 57.8182C109.655 57.7023 109.58 57.6444 109.429 57.6444H101.056C100.859 57.6444 100.726 57.7197 100.657 57.8704C100.17 58.9714 99.9269 59.5334 99.9269 59.5566C99.9269 59.6608 99.9964 59.713 100.135 59.713H108.509ZM134.688 65.1714C134.919 65.1714 135.058 65.0961 135.105 64.9454L140.212 53.4724C140.223 53.4608 140.229 53.4377 140.229 53.4028C140.229 53.2986 140.154 53.2463 140.004 53.2463H137.606C137.375 53.2463 137.236 53.3217 137.189 53.4724L135 58.3744L122.875 53.4724C122.528 53.3217 122.232 53.2463 121.989 53.2463H119.314C119.105 53.2463 118.966 53.3217 118.897 53.4724L113.79 64.9454C113.778 64.957 113.772 64.9802 113.772 65.015C113.772 65.1193 113.853 65.1714 114.015 65.1714H116.413C116.621 65.1714 116.76 65.0961 116.83 64.9454L118.966 60.1302L130.866 64.9106C131.295 65.0844 131.642 65.1714 131.908 65.1714H134.688ZM157.844 65.1714C158.064 65.1714 158.209 65.0961 158.279 64.9454L158.991 63.3461C158.991 63.3113 158.997 63.2882 159.008 63.2766C159.008 63.1723 158.927 63.1201 158.765 63.1201H150.861C150.062 63.1201 149.662 62.7841 149.662 62.1119C149.662 61.6484 149.888 60.9183 150.34 59.9216L151.174 58.0268C151.567 57.1229 151.949 56.4856 152.32 56.1147C152.841 55.5699 153.513 55.2976 154.335 55.2976H162.239C162.459 55.2976 162.598 55.2281 162.656 55.089L163.368 53.4724C163.38 53.4608 163.386 53.4377 163.386 53.4028C163.386 53.2986 163.31 53.2463 163.16 53.2463H151.399C149.685 53.2463 148.058 53.8489 146.518 55.0543C145.117 56.1436 144.04 57.5286 143.287 59.2089C142.835 60.2056 142.609 61.1327 142.609 61.9902C142.609 63.0101 142.934 63.8097 143.582 64.3891C144.184 64.9106 145.018 65.1714 146.084 65.1714H157.844ZM160.294 59.713C160.514 59.713 160.647 59.6377 160.693 59.487C161.191 58.4093 161.44 57.8529 161.44 57.8182C161.44 57.7023 161.365 57.6444 161.214 57.6444H152.841C152.644 57.6444 152.511 57.7197 152.442 57.8704C151.955 58.9714 151.712 59.5334 151.712 59.5566C151.712 59.6608 151.782 59.713 151.92 59.713H160.294ZM186.542 65.1714C186.843 65.1714 186.994 65.0844 186.994 64.9106C186.994 64.8759 185.801 63.126 183.415 59.6608C184.492 59.487 185.465 59.1393 186.334 58.6178C187.318 58.0037 188.007 57.2561 188.401 56.3754C188.575 56.0161 188.662 55.6396 188.662 55.2454C188.662 54.5501 188.372 54.0287 187.793 53.6809C187.33 53.3912 186.722 53.2463 185.969 53.2463H171.047C170.838 53.2463 170.699 53.3217 170.63 53.4724C167.213 61.121 165.505 64.9686 165.505 65.015C165.505 65.1193 165.586 65.1714 165.748 65.1714H171.985C172.216 65.1714 172.355 65.0961 172.402 64.9454L176.693 55.2976H180.254C181.122 55.2976 181.557 55.5584 181.557 56.0799C181.557 56.1841 181.528 56.3116 181.47 56.4623C181.319 56.8216 181.001 57.1171 180.514 57.3488C180.086 57.5459 179.652 57.6444 179.211 57.6444H176.97C176.762 57.6444 176.623 57.7197 176.554 57.8704L175.963 59.1915L175.98 59.3132L179.733 65.0844C179.767 65.1425 179.837 65.1714 179.941 65.1714H186.542ZM207.11 65.1714C207.319 65.1714 207.458 65.0961 207.527 64.9454C209.739 59.9622 210.845 57.4647 210.845 57.4531C210.845 57.3488 210.764 57.2967 210.602 57.2967H204.366C204.157 57.2967 204.018 57.372 203.949 57.5228L201.465 63.1201H199.519C198.72 63.1201 198.32 62.7841 198.32 62.1119C198.32 61.6484 198.546 60.9183 198.998 59.9216L199.832 58.0268C200.225 57.1229 200.608 56.4856 200.978 56.1147C201.499 55.5699 202.171 55.2976 202.993 55.2976H210.272C210.481 55.2976 210.62 55.2281 210.689 55.089L211.401 53.4724C211.413 53.4608 211.419 53.4377 211.419 53.4028C211.419 53.2986 211.337 53.2463 211.175 53.2463H200.058C198.343 53.2463 196.716 53.8489 195.176 55.0543C193.786 56.1436 192.709 57.5286 191.945 59.2089C191.493 60.2056 191.267 61.1327 191.267 61.9902C191.267 63.0101 191.592 63.8097 192.24 64.3891C192.842 64.9106 193.676 65.1714 194.742 65.1714H207.11ZM224.916 59.9738L234.575 53.6114C234.702 53.5188 234.766 53.4434 234.766 53.3854C234.766 53.2927 234.679 53.2463 234.506 53.2463H232.213C232.108 53.2463 232.01 53.2754 231.917 53.3333L225.177 57.8009L222.415 53.3333C222.357 53.2754 222.288 53.2463 222.207 53.2463H214.372C214.082 53.2463 213.938 53.3333 213.938 53.5071C213.938 53.5419 215.287 55.7264 217.985 60.0606C216.526 63.3519 215.796 65.0034 215.796 65.015C215.796 65.1193 215.871 65.1714 216.022 65.1714H222.293C222.49 65.1714 222.623 65.0961 222.693 64.9454L224.916 59.9738Z" fill="#000A0A"/>
<path fill-rule="evenodd" clip-rule="evenodd" d="M238.531 75.9725V65.1714L246.31 47.5329L227.938 47.5341L246.31 5.87518V28.2988L240.837 40.7094L254.073 40.731L238.531 75.9725Z" fill="#000A0A"/>
<path fill-rule="evenodd" clip-rule="evenodd" d="M241.902 40.7094L239.109 40.7147L246.31 24.3901V30.7165L241.902 40.7094Z" fill="#008C92"/>
<path fill-rule="evenodd" clip-rule="evenodd" d="M241.32 75.9725H238.53L254.073 40.7311L256.87 40.7147L241.32 75.9725Z" fill="#008C92"/>
</svg>
