<svg width="263" height="82" viewBox="0 0 201 62" fill="none" xmlns="http://www.w3.org/2000/svg">
<path fill-rule="evenodd" clip-rule="evenodd" d="M182.124 4.44281H18.5463H18.3898L4.34863 35.9404H14.833C15.2057 35.0135 19.3642 25.7518 27.3089 8.15552C27.4218 7.79191 27.7609 7.60992 28.326 7.60992H64.7341C66.5424 7.60992 68.0541 7.95965 69.2693 8.65881C70.7102 9.55391 71.4306 10.8269 71.4306 12.4772C71.4306 14.2675 70.6537 15.9739 69.0996 17.5963C67.7998 18.9389 66.2034 20.044 64.3101 20.9111C65.4122 21.8902 65.963 23.1209 65.963 24.6035C65.963 25.5826 65.7089 26.6178 65.2003 27.7086C64.0982 30.1423 62.2616 32.1982 59.6903 33.8766C58.1945 34.8426 56.6895 35.5303 55.1749 35.9404H69.188C69.5606 35.0135 73.7189 25.7518 81.6638 8.15552C81.8332 7.79191 82.1724 7.60992 82.6809 7.60992H119.089C120.954 7.60992 122.466 7.94554 123.624 8.61702C125.093 9.48415 125.828 10.757 125.828 12.4352C125.828 14.6171 124.811 16.6872 122.776 18.6452C119.696 21.6945 115.782 23.219 111.036 23.219H94.8875C94.5212 23.219 94.3366 23.0929 94.3366 22.8413C94.3366 22.7574 94.3507 22.7014 94.379 22.6734L96.1165 18.7712C96.2297 18.4074 96.5687 18.2257 97.1338 18.2257H102.602C103.675 18.2257 104.735 17.988 105.78 17.5123C106.967 16.9529 107.744 16.2396 108.111 15.3725C108.253 14.9527 108.323 14.6451 108.323 14.4494C108.323 13.1905 107.263 12.5612 105.144 12.5612H96.4556L85.9869 35.8487C85.972 35.8807 85.9557 35.9111 85.9384 35.9404H122.995C123 35.9149 123.003 35.8842 123.003 35.8487L124.741 31.9885C124.91 31.6251 125.249 31.4431 125.758 31.4431H144.576L133.98 21.8761C131.946 20.0859 130.929 18.2536 130.929 16.3794C130.929 14.2535 132.144 12.3933 134.574 10.7989C135.535 10.1834 136.559 9.65203 137.647 9.20441C138.735 8.75678 139.914 8.39332 141.186 8.11343C142.796 7.77766 144.407 7.60992 146.017 7.60992H167.221C167.588 7.60992 167.772 7.73572 167.772 7.98763C167.772 8.0715 167.757 8.12731 167.729 8.15552L165.991 12.0576C165.822 12.3933 165.482 12.5612 164.974 12.5612H150.722L161.191 22.2536C163.791 24.6595 165.09 26.8834 165.09 28.9255C165.09 31.7509 162.83 33.8067 158.309 35.0936C157.083 35.4483 155.781 35.7306 154.404 35.9404H168.151L182.124 4.44281ZM53.9685 14.4494C53.9685 14.7011 53.8978 15.0089 53.7565 15.3725C53.3327 16.2677 52.5557 16.981 51.4253 17.5123C50.3799 17.988 49.3183 18.2257 48.2465 18.2257H42.779C42.2441 18.2257 41.8889 18.4074 41.7193 18.7712L39.9817 22.6734C39.9817 22.7293 39.9675 22.7853 39.9393 22.8413C39.9393 23.0929 40.1371 23.219 40.5327 23.219H46.0005C47.6956 23.219 48.5433 23.9741 48.5433 25.4847C48.5433 26.9674 47.8793 28.3381 46.5513 29.5968C45.2232 30.8276 43.8084 31.4431 42.3127 31.4431H33.6241L42.1007 12.5612H50.7897C52.9088 12.5612 53.9685 13.1905 53.9685 14.4494Z" fill="#008C92"/>
<path d="M81.0566 49.276C81.2247 49.276 81.3354 49.219 81.3884 49.1051L81.9328 47.8959C81.9328 47.8696 81.9372 47.8521 81.9461 47.8433C81.9461 47.7644 81.8841 47.725 81.7602 47.725H75.7194C75.1087 47.725 74.8033 47.471 74.8033 46.9627C74.8033 46.6122 74.9759 46.0602 75.3211 45.3066L75.9584 43.874C76.2593 43.1905 76.5513 42.7086 76.8347 42.4282C77.233 42.0163 77.7463 41.8104 78.3747 41.8104H84.4155C84.5837 41.8104 84.6899 41.7579 84.7342 41.6527L85.2785 40.4304C85.2873 40.4216 85.2917 40.4041 85.2917 40.3778C85.2917 40.299 85.2342 40.2595 85.1191 40.2595H76.1311C74.8211 40.2595 73.5775 40.7151 72.4003 41.6265C71.3293 42.4501 70.5062 43.4972 69.9309 44.7677C69.5857 45.5213 69.4131 46.2223 69.4131 46.8707C69.4131 47.6418 69.6609 48.2464 70.1566 48.6845C70.6168 49.0788 71.2541 49.276 72.0684 49.276H81.0566ZM82.9286 45.1489C83.0967 45.1489 83.1985 45.0919 83.2339 44.978C83.6146 44.1631 83.8048 43.7425 83.8048 43.7163C83.8048 43.6286 83.7473 43.5848 83.6322 43.5848H77.233C77.0824 43.5848 76.9807 43.6417 76.9276 43.7557C76.5558 44.5881 76.3699 45.0131 76.3699 45.0306C76.3699 45.1094 76.423 45.1489 76.5293 45.1489H82.9286ZM102.936 49.276C103.113 49.276 103.219 49.219 103.255 49.1051L107.158 40.4304C107.167 40.4216 107.171 40.4041 107.171 40.3778C107.171 40.299 107.114 40.2595 106.999 40.2595H105.167C104.99 40.2595 104.883 40.3165 104.848 40.4304L103.175 44.1368L93.9082 40.4304C93.6426 40.3165 93.417 40.2595 93.231 40.2595H91.1865C91.0271 40.2595 90.921 40.3165 90.8679 40.4304L86.9646 49.1051C86.9558 49.1139 86.9514 49.1314 86.9514 49.1577C86.9514 49.2366 87.0133 49.276 87.1372 49.276H88.9693C89.1286 49.276 89.2349 49.219 89.288 49.1051L90.921 45.4643L100.015 49.0788C100.343 49.2102 100.608 49.276 100.812 49.276H102.936ZM120.634 49.276C120.802 49.276 120.912 49.219 120.966 49.1051L121.51 47.8959C121.51 47.8696 121.514 47.8521 121.523 47.8433C121.523 47.7644 121.461 47.725 121.337 47.725H115.297C114.686 47.725 114.381 47.471 114.381 46.9627C114.381 46.6122 114.553 46.0602 114.898 45.3066L115.536 43.874C115.837 43.1905 116.129 42.7086 116.412 42.4282C116.81 42.0163 117.323 41.8104 117.952 41.8104H123.993C124.161 41.8104 124.267 41.7579 124.311 41.6527L124.856 40.4304C124.864 40.4216 124.869 40.4041 124.869 40.3778C124.869 40.299 124.811 40.2595 124.696 40.2595H115.708C114.398 40.2595 113.155 40.7151 111.977 41.6265C110.907 42.4501 110.083 43.4972 109.508 44.7677C109.163 45.5213 108.99 46.2223 108.99 46.8707C108.99 47.6418 109.238 48.2464 109.734 48.6845C110.194 49.0788 110.831 49.276 111.645 49.276H120.634ZM122.506 45.1489C122.674 45.1489 122.776 45.0919 122.811 44.978C123.192 44.1631 123.382 43.7425 123.382 43.7163C123.382 43.6286 123.324 43.5848 123.209 43.5848H116.81C116.66 43.5848 116.558 43.6417 116.505 43.7557C116.133 44.5881 115.947 45.0131 115.947 45.0306C115.947 45.1094 116 45.1489 116.106 45.1489H122.506ZM142.566 49.276C142.797 49.276 142.912 49.2102 142.912 49.0788C142.912 49.0526 142 47.7294 140.177 45.1094C141 44.978 141.743 44.7151 142.407 44.3208C143.16 43.8565 143.686 43.2913 143.987 42.6254C144.12 42.3537 144.186 42.069 144.186 41.771C144.186 41.2452 143.965 40.851 143.522 40.5881C143.168 40.369 142.704 40.2595 142.128 40.2595H130.724C130.565 40.2595 130.458 40.3165 130.405 40.4304C127.794 46.2135 126.489 49.1226 126.489 49.1577C126.489 49.2366 126.551 49.276 126.674 49.276H131.441C131.618 49.276 131.724 49.219 131.759 49.1051L135.039 41.8104H137.76C138.424 41.8104 138.756 42.0076 138.756 42.4019C138.756 42.4807 138.734 42.5771 138.69 42.691C138.575 42.9627 138.331 43.1861 137.959 43.3613C137.632 43.5104 137.3 43.5848 136.964 43.5848H135.251C135.092 43.5848 134.986 43.6417 134.932 43.7557L134.481 44.7546L134.494 44.8466L137.362 49.2102C137.389 49.2541 137.442 49.276 137.521 49.276H142.566ZM158.286 49.276C158.445 49.276 158.551 49.219 158.604 49.1051C160.295 45.3373 161.14 43.449 161.14 43.4402C161.14 43.3613 161.078 43.322 160.954 43.322H156.188C156.029 43.322 155.923 43.3789 155.87 43.4929L153.971 47.725H152.484C151.873 47.725 151.568 47.471 151.568 46.9627C151.568 46.6122 151.74 46.0602 152.086 45.3066L152.723 43.874C153.024 43.1905 153.316 42.7086 153.599 42.4282C153.997 42.0163 154.511 41.8104 155.139 41.8104H160.702C160.861 41.8104 160.968 41.7579 161.021 41.6527L161.565 40.4304C161.574 40.4216 161.578 40.4041 161.578 40.3778C161.578 40.299 161.516 40.2595 161.392 40.2595H152.896C151.586 40.2595 150.342 40.7151 149.165 41.6265C148.103 42.4501 147.28 43.4972 146.695 44.7677C146.35 45.5213 146.178 46.2223 146.178 46.8707C146.178 47.6418 146.426 48.2464 146.921 48.6845C147.381 49.0788 148.019 49.276 148.833 49.276H158.286ZM171.894 45.346L179.276 40.5355C179.373 40.4654 179.422 40.4085 179.422 40.3646C179.422 40.2945 179.356 40.2595 179.223 40.2595H177.47C177.391 40.2595 177.315 40.2814 177.245 40.3252L172.093 43.7031L169.982 40.3252C169.938 40.2814 169.885 40.2595 169.823 40.2595H163.835C163.614 40.2595 163.503 40.3252 163.503 40.4566C163.503 40.4829 164.535 42.1346 166.597 45.4117C165.482 47.9003 164.924 49.149 164.924 49.1577C164.924 49.2366 164.982 49.276 165.097 49.276H169.889C170.04 49.276 170.142 49.219 170.195 49.1051L171.894 45.346Z" fill="#000A0A"/>
<path fill-rule="evenodd" clip-rule="evenodd" d="M182.299 57.4426V49.2759L188.245 35.9395L174.203 35.9404L188.245 4.4422V21.3966L184.062 30.7803L194.178 30.7966L182.299 57.4426Z" fill="#000A0A"/>
<path fill-rule="evenodd" clip-rule="evenodd" d="M184.876 30.7803L182.741 30.7843L188.244 18.4413V23.2246L184.876 30.7803Z" fill="#008C92"/>
<path fill-rule="evenodd" clip-rule="evenodd" d="M184.431 57.4426H182.299L194.177 30.7967L196.315 30.7843L184.431 57.4426Z" fill="#008C92"/>
</svg>
