<svg width="24" height="24" viewBox="0 0 24 24" fill="none" xmlns="http://www.w3.org/2000/svg">
<path d="M23.2505 11.3981C23.2482 11.715 23.1441 12.0228 22.9535 12.276C22.7629 12.5293 22.4959 12.7145 22.192 12.8044L22.1733 12.81L14.8608 14.8575L12.8133 22.17L12.8077 22.1887C12.7176 22.4926 12.5324 22.7595 12.2792 22.95C12.026 23.1406 11.7183 23.2448 11.4014 23.2472H11.3733C11.0625 23.2501 10.7588 23.155 10.5052 22.9754C10.2515 22.7958 10.0609 22.5409 9.96046 22.2469L3.84421 5.75718C3.84224 5.75232 3.84067 5.7473 3.83953 5.74218C3.74812 5.47671 3.73306 5.19091 3.79605 4.91731C3.85904 4.6437 3.99756 4.39326 4.19585 4.19449C4.39413 3.99572 4.64423 3.85658 4.91768 3.79292C5.19113 3.72925 5.47696 3.74361 5.74265 3.83436L5.75765 3.83905L22.2502 9.95718C22.5488 10.0593 22.8069 10.2541 22.9869 10.5134C23.1669 10.7726 23.2592 11.0826 23.2505 11.3981Z" fill="#A7ADB2"/>
</svg>
