<svg width="24" height="24" viewBox="0 0 24 24" fill="none" xmlns="http://www.w3.org/2000/svg">
<g clip-path="url(#clip0_79_1240)">
<path d="M19.1594 19.0041C17.331 20.8326 14.851 21.8598 12.2652 21.8598C9.6793 21.8598 7.19935 20.8326 5.37087 19.0041C3.54239 17.1756 2.51516 14.6956 2.51516 12.1098C2.51516 9.52393 3.54239 7.04398 5.37087 5.2155C8.08881 2.49756 12.1438 1.59931 15.7077 2.92116C15.8 2.95537 15.8848 3.00744 15.957 3.0744C16.0292 3.14135 16.0876 3.22188 16.1287 3.31138C16.1698 3.40089 16.1929 3.49761 16.1966 3.59604C16.2004 3.69447 16.1847 3.79267 16.1505 3.88503C16.1163 3.9774 16.0642 4.06212 15.9973 4.13436C15.9303 4.2066 15.8498 4.26495 15.7603 4.30607C15.6708 4.34719 15.574 4.37028 15.4756 4.37402C15.3772 4.37776 15.279 4.36207 15.1866 4.32786C12.1697 3.20952 8.73382 3.97386 6.43153 6.27616C4.88435 7.82333 4.01516 9.92175 4.01516 12.1098C4.01516 14.2978 4.88435 16.3962 6.43153 17.9434C7.9787 19.4906 10.0771 20.3598 12.2652 20.3598C14.4532 20.3598 16.5516 19.4906 18.0988 17.9434C20.4011 15.6411 21.1654 12.2052 20.0471 9.18833C19.978 9.00179 19.9858 8.79545 20.0689 8.61468C20.1519 8.43392 20.3034 8.29355 20.4899 8.22446C20.6765 8.15536 20.8828 8.1632 21.0636 8.24625C21.2443 8.32929 21.3847 8.48074 21.4538 8.66728C22.7756 12.2311 21.8774 16.2861 19.1594 19.0041Z" fill="currentColor"/>
</g>
<defs>
<clipPath id="clip0_79_1240">
<rect width="24" height="24" fill="white"/>
</clipPath>
</defs>
</svg>
