<svg width="24" height="24" viewBox="0 0 24 24" fill="none" xmlns="http://www.w3.org/2000/svg">
<path d="M21.4298 5.59521C21.2329 7.64376 19.64 18.0401 19.3001 19.0832C19.01 19.9745 18.703 20.742 18.1203 20.742C17.5376 20.742 16.9011 20.5387 16.2735 20.0902C15.6458 19.6418 11.4788 16.8466 10.8993 16.4817C10.3922 16.1619 9.85536 15.363 10.6116 14.5923C11.2345 13.9574 15.9584 9.37246 16.3619 8.96902C16.7653 8.56477 16.3715 8.04801 15.8781 8.45145C15.3838 8.8549 8.50197 13.4599 7.90565 13.8304C7.34308 14.18 6.3393 14.3914 5.45767 14.1479C4.54229 13.8955 2.99201 13.4254 2.37639 13.206C1.78489 12.9946 1.57031 12.7913 1.57031 12.4296C1.57031 11.9153 2.29522 11.5601 3.06193 11.2346C3.87042 10.8906 17.8639 4.94906 18.9585 4.55445C19.7566 4.26674 20.4445 4.15503 20.909 4.37845C21.2932 4.56249 21.4893 4.97477 21.4298 5.59521Z" fill="currentColor"/>
</svg>
