<svg width="40" height="40" viewBox="0 0 40 40" fill="none" xmlns="http://www.w3.org/2000/svg">
<path d="M9.24023 4.51806C16.5704 2.94162 24.1801 2.99705 31.4922 4.67431L31.7988 4.74852C33.3334 5.13838 34.8483 5.81667 36.0322 6.96825C37.532 8.42716 38.4616 9.89916 39.0059 11.6792C39.544 13.4391 39.6953 15.469 39.6953 18.02C39.6953 28.73 30.868 37.395 20 37.395C9.13199 37.395 0.304688 28.73 0.304688 18.02C0.304712 15.4651 0.463017 13.433 1.01074 11.6714C1.56453 9.89042 2.50518 8.41858 4.01172 6.95946C5.27178 5.7391 6.89867 5.0518 8.53125 4.67626L9.24023 4.51806ZM19.999 25.8979C14.8425 25.898 10.2827 27.5556 6.53711 30.4819C9.9085 33.9984 14.6907 36.1958 20 36.1958C25.3257 36.1958 30.1201 33.9841 33.4932 30.4487C29.8728 27.6342 25.4576 26.01 20.5176 25.9038L19.999 25.8979ZM23.0771 4.66845C20.9499 4.5382 18.816 4.54492 16.6895 4.68602C16.2774 4.76353 15.8626 4.88742 15.4727 5.03563L15.0244 5.21923C14.3876 5.49768 14.1427 6.29839 14.5342 6.9995L15.0137 7.85888C16.2918 9.23993 17.0742 11.0868 17.0742 13.1167L17.0635 13.5151C16.856 17.607 13.4725 20.8618 9.3291 20.8618L8.93066 20.8511C7.52849 20.78 6.2254 20.3345 5.11719 19.6147C4.98706 19.5738 4.83097 19.5273 4.65234 19.479C4.44968 19.4242 4.23035 19.369 4.00879 19.3149L3.35156 19.1597C2.79679 19.0329 2.25495 19.2451 1.99219 19.6811C1.85823 19.9035 1.73824 20.1279 1.65137 20.3325C2.10247 23.8219 3.56213 27.004 5.7334 29.5874C6.03914 29.3468 6.35093 29.1154 6.66699 28.8911C10.4488 26.207 14.9601 24.6988 19.999 24.6987L20.5439 24.7046C25.772 24.817 30.4595 26.5486 34.2949 29.5522C36.4402 26.9869 37.8846 23.8354 38.3408 20.3804C38.2529 20.1631 38.1249 19.9209 37.9805 19.6811C37.7177 19.2451 37.1759 19.0329 36.6211 19.1597L35.9639 19.3149C35.7423 19.369 35.523 19.4242 35.3203 19.479C35.0788 19.5443 34.8777 19.6041 34.7275 19.6548C33.5279 20.4178 32.1051 20.8618 30.5781 20.8618L30.1797 20.8511C26.2199 20.6503 23.0445 17.475 22.8438 13.5151L22.834 13.1167C22.834 11.1528 23.5657 9.35975 24.7705 7.99462L25.3271 6.9995C25.7187 6.29839 25.4737 5.49768 24.8369 5.21923L24.3887 5.03563C23.9687 4.87604 23.5203 4.74362 23.0771 4.66845ZM9.3291 6.57274C5.71493 6.57288 2.78529 9.50252 2.78516 13.1167C2.78536 16.7308 5.71497 19.6615 9.3291 19.6616C12.9433 19.6616 15.8738 16.7309 15.874 13.1167C15.8739 9.50244 12.9434 6.57274 9.3291 6.57274ZM30.5781 6.57274C26.964 6.57288 24.0343 9.50252 24.0342 13.1167C24.0344 16.7308 26.964 19.6615 30.5781 19.6616C34.1924 19.6616 37.1228 16.7309 37.123 13.1167C37.1229 9.50244 34.1924 6.57274 30.5781 6.57274ZM9.58887 8.08446C12.2513 8.21954 14.369 10.4207 14.3691 13.1167L14.3623 13.3765C14.2271 16.0388 12.0251 18.1567 9.3291 18.1567L9.07031 18.1499C6.49364 18.0194 4.42778 15.953 4.29688 13.3765L4.29004 13.1167C4.29017 10.3338 6.54616 8.07776 9.3291 8.07763L9.58887 8.08446ZM30.8379 8.08446C33.5003 8.21954 35.618 10.4207 35.6182 13.1167L35.6113 13.3765C35.4761 16.0388 33.2741 18.1567 30.5781 18.1567L30.3193 18.1499C27.7427 18.0194 25.6768 15.953 25.5459 13.3765L25.5391 13.1167C25.5392 10.3338 27.7952 8.07776 30.5781 8.07763L30.8379 8.08446ZM9.3291 9.27782C7.2089 9.27795 5.49037 10.9965 5.49023 13.1167C5.49044 15.2368 7.20895 16.9564 9.3291 16.9565C11.4494 16.9565 13.1687 15.2369 13.1689 13.1167C13.1688 10.9964 11.4494 9.27782 9.3291 9.27782ZM30.5781 9.27782C28.4579 9.27795 26.7394 10.9965 26.7393 13.1167C26.7395 15.2368 28.458 16.9564 30.5781 16.9565C32.6984 16.9565 34.4178 15.2369 34.418 13.1167C34.4178 10.9964 32.6984 9.27782 30.5781 9.27782Z" fill="currentColor"/>
<path d="M28.9414 27.1191L34.1611 30.1436L33.0371 31.9102L26.3184 36.0859L18.7441 36.8887L14.2207 36.0859L10.1523 34.1582L6.29785 31.1338L6.03027 30.1973L10.8477 26.8789L16.9502 25.4863H23.2402L28.9414 27.1191ZM19.999 26.8916C18.346 26.8917 17.006 28.2317 17.0059 29.8848C17.0059 31.5379 18.3459 32.8788 19.999 32.8789C21.6522 32.8789 22.9932 31.538 22.9932 29.8848C22.993 28.2317 21.6522 26.8916 19.999 26.8916ZM12.1191 28.9609C11.2907 28.9609 10.6191 29.6325 10.6191 30.4609C10.6191 31.2894 11.2907 31.9609 12.1191 31.9609C12.9476 31.9609 13.6191 31.2894 13.6191 30.4609C13.6191 29.6325 12.9476 28.9609 12.1191 28.9609ZM27.8789 28.9609C27.0505 28.9609 26.3789 29.6325 26.3789 30.4609C26.3789 31.2894 27.0505 31.9609 27.8789 31.9609C28.7073 31.9609 29.3789 31.2894 29.3789 30.4609C29.3789 29.6325 28.7073 28.9609 27.8789 28.9609Z" fill="currentColor"/>
</svg>
