<svg width="40" height="40" viewBox="0 0 40 40" fill="none" xmlns="http://www.w3.org/2000/svg">
<path d="M32.4004 12C32.4004 8.24155 30.7281 4.87449 28.0859 2.59961H11.9141C9.27186 4.87449 7.59961 8.24155 7.59961 12C7.59961 18.8483 13.1517 24.4004 20 24.4004C26.8483 24.4004 32.4004 18.8483 32.4004 12ZM33.5996 12C33.5996 19.5111 27.5111 25.5996 20 25.5996C12.4889 25.5996 6.40039 19.5111 6.40039 12C6.40039 7.79334 8.31099 4.03278 11.3096 1.53906L11.4756 1.40039H28.5244L28.6904 1.53906L28.9688 1.77637C31.8069 4.2681 33.5996 7.92487 33.5996 12Z" fill="currentColor"/>
<path d="M17.8398 6.83942C17.8398 6.25952 17.3699 5.78961 16.79 5.78961C16.2101 5.78961 15.7402 6.25952 15.7402 6.83942C15.7402 7.41932 16.2101 7.88922 16.79 7.88922V9.08942C15.5474 9.08942 14.54 8.08206 14.54 6.83942C14.54 5.59678 15.5474 4.58942 16.79 4.58942C18.0327 4.58942 19.04 5.59678 19.04 6.83942C19.04 8.08206 18.0327 9.08942 16.79 9.08942V7.88922C17.3699 7.88922 17.8398 7.41932 17.8398 6.83942Z" fill="currentColor"/>
<path d="M14.8369 11.4711C14.8369 10.615 14.1432 9.92126 13.2871 9.92126C12.4311 9.92126 11.7373 10.615 11.7373 11.4711C11.7373 12.3271 12.4311 13.0209 13.2871 13.0209V14.2211C11.7683 14.2211 10.5371 12.9899 10.5371 11.4711C10.5371 9.95229 11.7683 8.72107 13.2871 8.72107C14.8059 8.72107 16.0371 9.95229 16.0371 11.4711C16.0371 12.9899 14.8059 14.2211 13.2871 14.2211V13.0209C14.1432 13.0209 14.8369 12.3271 14.8369 11.4711Z" fill="currentColor"/>
<path d="M18.085 17.1611C18.085 16.3051 17.3912 15.6113 16.5352 15.6113C15.6791 15.6113 14.9854 16.3051 14.9854 17.1611C14.9854 18.0172 15.6791 18.7109 16.5352 18.7109V19.9111C15.0164 19.9111 13.7852 18.6799 13.7852 17.1611C13.7852 15.6423 15.0164 14.4111 16.5352 14.4111C18.0539 14.4111 19.2852 15.6423 19.2852 17.1611C19.2852 18.6799 18.0539 19.9111 16.5352 19.9111V18.7109C17.3912 18.7109 18.085 18.0172 18.085 17.1611Z" fill="currentColor"/>
<path d="M17.1943 32C17.1943 30.4568 15.9436 29.2061 14.4004 29.2061C12.8572 29.2061 11.6064 30.4568 11.6064 32C11.6064 33.5432 12.8572 34.7939 14.4004 34.7939V35.9941C12.1945 35.9941 10.4062 34.2059 10.4062 32C10.4062 29.7941 12.1945 28.0059 14.4004 28.0059C16.6063 28.0059 18.3945 29.7941 18.3945 32C18.3945 34.2059 16.6063 35.9941 14.4004 35.9941V34.7939C15.9436 34.7939 17.1943 33.5432 17.1943 32Z" fill="currentColor"/>
<path d="M28.2793 32C28.2793 30.4568 27.0285 29.2061 25.4854 29.2061C23.9422 29.2061 22.6914 30.4568 22.6914 32C22.6914 33.5432 23.9422 34.7939 25.4854 34.7939V35.9941C23.2794 35.9941 21.4912 34.2059 21.4912 32C21.4912 29.7941 23.2794 28.0059 25.4854 28.0059C27.6913 28.0059 29.4795 29.7941 29.4795 32C29.4795 34.2059 27.6913 35.9941 25.4854 35.9941V34.7939C27.0285 34.7939 28.2793 33.5432 28.2793 32Z" fill="currentColor"/>
<path d="M25 17.1611C25 16.3051 24.3062 15.6113 23.4502 15.6113C22.5942 15.6113 21.9004 16.3051 21.9004 17.1611C21.9004 18.0172 22.5942 18.7109 23.4502 18.7109V19.9111C21.9314 19.9111 20.7002 18.6799 20.7002 17.1611C20.7002 15.6423 21.9314 14.4111 23.4502 14.4111C24.969 14.4111 26.2002 15.6423 26.2002 17.1611C26.2002 18.6799 24.969 19.9111 23.4502 19.9111V18.7109C24.3062 18.7109 25 18.0172 25 17.1611Z" fill="currentColor"/>
<path d="M21.543 11.4711C21.543 10.615 20.8492 9.92126 19.9932 9.92126C19.1371 9.92126 18.4434 10.615 18.4434 11.4711C18.4434 12.3271 19.1371 13.0209 19.9932 13.0209V14.2211C18.4744 14.2211 17.2432 12.9899 17.2432 11.4711C17.2432 9.95229 18.4744 8.72107 19.9932 8.72107C21.5119 8.72107 22.7432 9.95229 22.7432 11.4711C22.7432 12.9899 21.5119 14.2211 19.9932 14.2211V13.0209C20.8492 13.0209 21.543 12.3271 21.543 11.4711Z" fill="currentColor"/>
<path d="M28.1523 11.4711C28.1523 10.615 27.4586 9.92126 26.6025 9.92126C25.7465 9.92126 25.0527 10.615 25.0527 11.4711C25.0527 12.3271 25.7465 13.0209 26.6025 13.0209V14.2211C25.0838 14.2211 23.8525 12.9899 23.8525 11.4711C23.8525 9.95229 25.0838 8.72107 26.6025 8.72107C28.1213 8.72107 29.3525 9.95229 29.3525 11.4711C29.3525 12.9899 28.1213 14.2211 26.6025 14.2211V13.0209C27.4586 13.0209 28.1523 12.3271 28.1523 11.4711Z" fill="currentColor"/>
<path d="M24.4492 6.83942C24.4492 6.25952 23.9793 5.78961 23.3994 5.78961C22.8195 5.78961 22.3496 6.25952 22.3496 6.83942C22.3496 7.41932 22.8195 7.88922 23.3994 7.88922V9.08942C22.1568 9.08942 21.1494 8.08206 21.1494 6.83942C21.1494 5.59678 22.1568 4.58942 23.3994 4.58942C24.6421 4.58942 25.6494 5.59678 25.6494 6.83942C25.6494 8.08206 24.6421 9.08942 23.3994 9.08942V7.88922C23.9793 7.88922 24.4492 7.41932 24.4492 6.83942Z" fill="currentColor"/>
<path d="M26 37.7998V39H14V37.7998H26ZM31.7998 32C31.7998 28.7967 29.2033 26.2002 26 26.2002H14C10.7967 26.2002 8.2002 28.7967 8.2002 32C8.2002 35.2033 10.7967 37.7998 14 37.7998V39L13.6396 38.9912C9.94111 38.8037 7 35.7451 7 32C7 28.2549 9.94111 25.1963 13.6396 25.0088L14 25H26L26.3604 25.0088C30.0589 25.1963 33 28.2549 33 32C33 35.7451 30.0589 38.8037 26.3604 38.9912L26 39V37.7998C29.2033 37.7998 31.7998 35.2033 31.7998 32Z" fill="currentColor"/>
</svg>
