<svg width="40" height="40" viewBox="0 0 40 40" fill="none" xmlns="http://www.w3.org/2000/svg">
<path d="M26.1689 2.40039C29.8186 2.40045 33.7095 3.47804 35.9453 6.59961L36.3652 7.20996C38.4097 10.3048 39.5996 14.0142 39.5996 18C39.5996 28.8248 30.8248 37.5996 20 37.5996C9.17522 37.5996 0.400391 28.8248 0.400391 18C0.400391 13.7486 1.75415 9.81174 4.05469 6.59961C6.29047 3.47804 10.1814 2.40045 13.8311 2.40039H26.1689ZM13.8311 3.59961C10.3588 3.59967 6.9415 4.62943 5.03027 7.29785C2.87069 10.313 1.59961 14.0073 1.59961 18C1.59961 28.162 9.83796 36.4004 20 36.4004C30.162 36.4004 38.4004 28.162 38.4004 18C38.4004 14.2569 37.2833 10.776 35.3643 7.87109L34.9697 7.29785C33.0585 4.62943 29.6412 3.59967 26.1689 3.59961H13.8311ZM14.6758 23.3936C17.0228 23.5128 18.8894 25.4535 18.8896 27.8301L18.8838 28.0596C18.7644 30.4066 16.823 32.2734 14.4463 32.2734L14.2178 32.2676C11.9465 32.1523 10.1253 30.3308 10.0098 28.0596L10.0039 27.8301C10.0041 25.3768 11.993 23.3879 14.4463 23.3877L14.6758 23.3936ZM25.7832 23.3936C28.1302 23.5128 29.9969 25.4535 29.9971 27.8301L29.9912 28.0596C29.8718 30.4066 27.9304 32.2734 25.5537 32.2734L25.3252 32.2676C23.0539 32.1523 21.2327 30.3308 21.1172 28.0596L21.1113 27.8301C21.1116 25.3768 23.1004 23.3879 25.5537 23.3877L25.7832 23.3936ZM14.4463 24.5879C12.6557 24.5881 11.2043 26.0395 11.2041 27.8301C11.2043 29.6207 12.6557 31.073 14.4463 31.0732C16.2371 31.0732 17.6893 29.6208 17.6895 27.8301C17.6892 26.0394 16.237 24.5879 14.4463 24.5879ZM25.5537 24.5879C23.7631 24.5881 22.3118 26.0395 22.3115 27.8301C22.3117 29.6207 23.7631 31.073 25.5537 31.0732C27.3445 31.0732 28.7967 29.6208 28.7969 27.8301C28.7966 26.0394 27.3445 24.5879 25.5537 24.5879ZM9.12207 13.9521C11.469 14.0714 13.3356 16.0122 13.3359 18.3887L13.3301 18.6182C13.2109 20.9653 11.2694 22.832 8.89258 22.832L8.66406 22.8262C6.39267 22.7109 4.57142 20.8895 4.45605 18.6182L4.4502 18.3887C4.45055 15.9355 6.43934 13.9465 8.89258 13.9463L9.12207 13.9521ZM20.2285 13.9521C22.5755 14.0714 24.4421 16.0121 24.4424 18.3887L24.4365 18.6182C24.3173 20.9653 22.3758 22.832 19.999 22.832L19.7705 22.8262C17.4991 22.7109 15.6779 20.8895 15.5625 18.6182L15.5566 18.3887C15.557 15.9354 17.5458 13.9465 19.999 13.9463L20.2285 13.9521ZM31.3359 13.9521C33.6829 14.0714 35.5495 16.0122 35.5498 18.3887L35.5439 18.6182C35.4247 20.9653 33.4832 22.832 31.1064 22.832L30.8779 22.8262C28.6065 22.7109 26.7853 20.8895 26.6699 18.6182L26.6641 18.3887C26.6644 15.9355 28.6532 13.9465 31.1064 13.9463L31.3359 13.9521ZM8.89258 15.1465C7.10207 15.1467 5.65075 16.5982 5.65039 18.3887C5.65039 20.1795 7.10185 21.6316 8.89258 21.6318C10.6835 21.6318 12.1357 20.1796 12.1357 18.3887C12.1354 16.5981 10.6832 15.1465 8.89258 15.1465ZM19.999 15.1465C18.2085 15.1467 16.7572 16.5982 16.7568 18.3887C16.7568 20.1795 18.2083 21.6316 19.999 21.6318C21.7899 21.6318 23.2422 20.1796 23.2422 18.3887C23.2419 16.598 21.7897 15.1465 19.999 15.1465ZM31.1064 15.1465C29.3159 15.1467 27.8646 16.5982 27.8643 18.3887C27.8643 20.1795 29.3157 21.6316 31.1064 21.6318C32.8973 21.6318 34.3496 20.1796 34.3496 18.3887C34.3493 16.5981 32.8971 15.1465 31.1064 15.1465ZM14.6182 6.73145C16.3786 6.82085 17.7783 8.27691 17.7783 10.0596L17.7744 10.2314C17.6848 11.9917 16.2288 13.3916 14.4463 13.3916L14.2744 13.3877C12.5711 13.3011 11.2049 11.9348 11.1182 10.2314L11.1143 10.0596C11.1143 8.21934 12.6061 6.72761 14.4463 6.72754L14.6182 6.73145ZM25.7246 6.73145C27.4851 6.82085 28.8847 8.27691 28.8848 10.0596L28.8809 10.2314C28.7912 11.9917 27.3353 13.3916 25.5527 13.3916L25.3809 13.3877C23.6775 13.3011 22.3113 11.9348 22.2246 10.2314L22.2207 10.0596C22.2207 8.21934 23.7125 6.72761 25.5527 6.72754L25.7246 6.73145ZM14.4463 7.92773C13.2688 7.92781 12.3145 8.8821 12.3145 10.0596C12.3147 11.2369 13.2689 12.1913 14.4463 12.1914C15.6237 12.1914 16.5779 11.2369 16.5781 10.0596C16.5781 8.88205 15.6238 7.92773 14.4463 7.92773ZM25.5527 7.92773C24.3753 7.92781 23.4209 8.8821 23.4209 10.0596C23.4211 11.2369 24.3754 12.1913 25.5527 12.1914C26.7301 12.1914 27.6843 11.2369 27.6846 10.0596C27.6845 8.88205 26.7303 7.92773 25.5527 7.92773Z" fill="currentColor"/>
</svg>
