<svg width="40" height="40" viewBox="0 0 40 40" fill="none" xmlns="http://www.w3.org/2000/svg">
<path d="M16.7998 20C16.7998 16.7967 14.2033 14.2002 11 14.2002C7.79675 14.2002 5.2002 16.7967 5.2002 20C5.2002 23.2033 7.79675 25.7998 11 25.7998V27C7.13401 27 4 23.866 4 20C4 16.134 7.13401 13 11 13C14.866 13 18 16.134 18 20C18 23.866 14.866 27 11 27V25.7998C14.2033 25.7998 16.7998 23.2033 16.7998 20Z" fill="#000A0A"/>
<path d="M34.7998 20C34.7998 16.7967 32.2033 14.2002 29 14.2002C25.7967 14.2002 23.2002 16.7967 23.2002 20C23.2002 23.2033 25.7967 25.7998 29 25.7998V27C25.134 27 22 23.866 22 20C22 16.134 25.134 13 29 13C32.866 13 36 16.134 36 20C36 23.866 32.866 27 29 27V25.7998C32.2033 25.7998 34.7998 23.2033 34.7998 20Z" fill="#000A0A"/>
<path d="M22.7998 30C22.7998 28.4536 21.5464 27.2002 20 27.2002C18.4536 27.2002 17.2002 28.4536 17.2002 30C17.2002 31.5464 18.4536 32.7998 20 32.7998V34C17.7909 34 16 32.2091 16 30C16 27.7909 17.7909 26 20 26C22.2091 26 24 27.7909 24 30C24 32.2091 22.2091 34 20 34V32.7998C21.5464 32.7998 22.7998 31.5464 22.7998 30Z" fill="#000A0A"/>
<path d="M29.7998 30C29.7998 29.0059 28.9941 28.2002 28 28.2002C27.0059 28.2002 26.2002 29.0059 26.2002 30C26.2002 30.9941 27.0059 31.7998 28 31.7998V33C26.3431 33 25 31.6569 25 30C25 28.3431 26.3431 27 28 27C29.6569 27 31 28.3431 31 30C31 31.6569 29.6569 33 28 33V31.7998C28.9941 31.7998 29.7998 30.9941 29.7998 30Z" fill="#000A0A"/>
<path d="M28.7998 8C28.7998 7.00589 27.9941 6.2002 27 6.2002C26.0059 6.2002 25.2002 7.00589 25.2002 8C25.2002 8.99411 26.0059 9.7998 27 9.7998V11C25.3431 11 24 9.65685 24 8C24 6.34315 25.3431 5 27 5C28.6569 5 30 6.34315 30 8C30 9.65685 28.6569 11 27 11V9.7998C27.9941 9.7998 28.7998 8.99411 28.7998 8Z" fill="#000A0A"/>
<path d="M21.7998 8C21.7998 7.00589 20.9941 6.2002 20 6.2002C19.0059 6.2002 18.2002 7.00589 18.2002 8C18.2002 8.99411 19.0059 9.7998 20 9.7998V11C18.3431 11 17 9.65685 17 8C17 6.34315 18.3431 5 20 5C21.6569 5 23 6.34315 23 8C23 9.65685 21.6569 11 20 11V9.7998C20.9941 9.7998 21.7998 8.99411 21.7998 8Z" fill="#000A0A"/>
<path d="M21.7998 14C21.7998 13.0059 20.9941 12.2002 20 12.2002C19.0059 12.2002 18.2002 13.0059 18.2002 14C18.2002 14.9941 19.0059 15.7998 20 15.7998V17C18.3431 17 17 15.6569 17 14C17 12.3431 18.3431 11 20 11C21.6569 11 23 12.3431 23 14C23 15.6569 21.6569 17 20 17V15.7998C20.9941 15.7998 21.7998 14.9941 21.7998 14Z" fill="#000A0A"/>
<path d="M14.7998 8C14.7998 7.00589 13.9941 6.2002 13 6.2002C12.0059 6.2002 11.2002 7.00589 11.2002 8C11.2002 8.99411 12.0059 9.7998 13 9.7998V11C11.3431 11 10 9.65685 10 8C10 6.34315 11.3431 5 13 5C14.6569 5 16 6.34315 16 8C16 9.65685 14.6569 11 13 11V9.7998C13.9941 9.7998 14.7998 8.99411 14.7998 8Z" fill="#000A0A"/>
<path d="M13.7998 30C13.7998 29.0059 12.9941 28.2002 12 28.2002C11.0059 28.2002 10.2002 29.0059 10.2002 30C10.2002 30.9941 11.0059 31.7998 12 31.7998V33C10.3431 33 9 31.6569 9 30C9 28.3431 10.3431 27 12 27C13.6569 27 15 28.3431 15 30C15 31.6569 13.6569 33 12 33V31.7998C12.9941 31.7998 13.7998 30.9941 13.7998 30Z" fill="#000A0A"/>
<path d="M38.4004 18C38.4004 12.1683 35.6865 6.97167 31.4521 3.59961H8.54785C4.31347 6.97167 1.59961 12.1683 1.59961 18C1.59961 28.162 9.83796 36.4004 20 36.4004C30.162 36.4004 38.4004 28.162 38.4004 18ZM39.5996 18C39.5996 28.8248 30.8248 37.5996 20 37.5996C9.17522 37.5996 0.400391 28.8248 0.400391 18C0.400391 11.7101 3.36329 6.11178 7.96777 2.52637L8.13086 2.40039H31.8691L32.0322 2.52637C36.6367 6.11178 39.5996 11.7101 39.5996 18Z" fill="black"/>
</svg>
