<svg width="40" height="40" viewBox="0 0 40 40" fill="none" xmlns="http://www.w3.org/2000/svg">
<path d="M26.1689 2.40039C29.8186 2.40045 33.7095 3.47804 35.9453 6.59961L36.3652 7.20996C38.4097 10.3048 39.5996 14.0142 39.5996 18C39.5996 28.8248 30.8248 37.5996 20 37.5996C9.17522 37.5996 0.400391 28.8248 0.400391 18C0.400391 13.7486 1.75415 9.81174 4.05469 6.59961L4.26953 6.3125C6.53385 3.41142 10.2955 2.40045 13.8311 2.40039H26.1689ZM14.877 4.92578C11.6739 4.92581 8.23033 5.8688 6.27344 8.64746C4.35124 11.377 3.22266 14.7068 3.22266 18.2979C3.22301 27.5637 10.7341 35.0751 20 35.0752C29.266 35.0752 36.778 27.5638 36.7783 18.2979C36.7783 14.7068 35.6488 11.377 33.7266 8.64746C31.7696 5.86891 28.326 4.92578 25.123 4.92578H14.877ZM25.123 6.125C28.1518 6.125 31.1148 7.02245 32.7461 9.33887C34.5303 11.8727 35.5781 14.9623 35.5781 18.2979C35.5778 26.901 28.6032 33.875 20 33.875C11.3969 33.8749 4.42222 26.9009 4.42188 18.2979C4.42188 14.9622 5.47051 11.8727 7.25488 9.33887C8.88619 7.02248 11.8482 6.12503 14.877 6.125H25.123ZM15.2578 22.8936C13.1631 22.8938 11.4651 24.5918 11.4648 26.6865L11.4697 26.8818C11.5679 28.8218 13.1235 30.3774 15.0635 30.4756L15.2578 30.4805C17.2875 30.4805 18.9455 28.8863 19.0469 26.8818L19.0518 26.6865C19.0515 24.657 17.4575 22.9998 15.4531 22.8984L15.2578 22.8936ZM24.7412 22.8936C22.6465 22.8938 20.9485 24.5918 20.9482 26.6865L20.9531 26.8818C21.0513 28.8218 22.6069 30.3774 24.5469 30.4756L24.7412 30.4805C26.7709 30.4805 28.4289 28.8863 28.5303 26.8818L28.5352 26.6865C28.5349 24.657 26.9409 22.9998 24.9365 22.8984L24.7412 22.8936ZM15.2578 24.0938C16.69 24.0938 17.8513 25.2544 17.8516 26.6865C17.8516 28.1188 16.6901 29.2803 15.2578 29.2803C13.8257 29.28 12.665 28.1187 12.665 26.6865C12.6653 25.2546 13.8259 24.094 15.2578 24.0938ZM24.7412 24.0938C26.1734 24.0938 27.3347 25.2544 27.335 26.6865C27.335 28.1188 26.1735 29.2803 24.7412 29.2803C23.3091 29.28 22.1484 28.1187 22.1484 26.6865C22.1487 25.2546 23.3093 24.094 24.7412 24.0938ZM10.5156 14.833C8.42111 14.8333 6.72317 16.5305 6.72266 18.625L6.72754 18.8203C6.82568 20.7603 8.3813 22.3159 10.3213 22.4141L10.5156 22.4189C12.5453 22.4189 14.2033 20.8248 14.3047 18.8203L14.3096 18.625C14.3091 16.5957 12.7151 14.9383 10.7109 14.8369L10.5156 14.833ZM20 14.833C17.9055 14.8333 16.2076 16.5305 16.207 18.625L16.2119 18.8203C16.3101 20.7603 17.8657 22.3159 19.8057 22.4141L20 22.4189C22.0297 22.4189 23.6877 20.8248 23.7891 18.8203L23.7939 18.625C23.7934 16.5957 22.1995 14.9383 20.1953 14.8369L20 14.833ZM29.4834 14.833C27.3889 14.8333 25.691 16.5305 25.6904 18.625L25.6953 18.8203C25.7935 20.7603 27.3491 22.3159 29.2891 22.4141L29.4834 22.4189C31.5131 22.4189 33.1711 20.8248 33.2725 18.8203L33.2773 18.625C33.2768 16.5957 31.6829 14.9393 29.6787 14.8379L29.4834 14.833ZM10.5156 16.0322C11.9476 16.0322 13.1089 17.1931 13.1094 18.625C13.1094 20.0573 11.9479 21.2187 10.5156 21.2188C9.08353 21.2185 7.92285 20.0572 7.92285 18.625C7.92337 17.1933 9.08385 16.0325 10.5156 16.0322ZM20 16.0322C21.432 16.0322 22.5932 17.1931 22.5938 18.625C22.5938 20.0573 21.4323 21.2187 20 21.2188C18.5679 21.2185 17.4072 20.0572 17.4072 18.625C17.4077 17.1933 18.5682 16.0325 20 16.0322ZM29.4834 16.0332C30.9154 16.0332 32.0766 17.1931 32.0771 18.625C32.0771 20.0573 30.9157 21.2187 29.4834 21.2188C28.0513 21.2185 26.8906 20.0572 26.8906 18.625C26.8911 17.1933 28.0516 16.0335 29.4834 16.0332ZM15.2568 8.66797C13.6858 8.66816 12.4123 9.94168 12.4121 11.5127L12.4268 11.8037C12.5626 13.1427 13.6269 14.2076 14.9658 14.3438L15.2568 14.3584C16.73 14.3584 17.9423 13.2385 18.0879 11.8037L18.1025 11.5127C18.1024 10.0397 16.9825 8.82819 15.5479 8.68262L15.2568 8.66797ZM24.7412 8.66797C23.1702 8.66816 21.8967 9.94168 21.8965 11.5127L21.9111 11.8037C22.047 13.1427 23.1113 14.2076 24.4502 14.3438L24.7412 14.3584C26.2144 14.3584 27.4267 13.2385 27.5723 11.8037L27.5869 11.5127C27.5867 10.0397 26.4669 8.82819 25.0322 8.68262L24.7412 8.66797ZM15.2568 9.86816C16.1653 9.86816 16.9021 10.6043 16.9023 11.5127C16.9023 12.4213 16.1654 13.1582 15.2568 13.1582C14.3484 13.158 13.6123 12.4211 13.6123 11.5127C13.6125 10.6044 14.3486 9.86836 15.2568 9.86816ZM24.7412 9.86816C25.6496 9.86816 26.3865 10.6043 26.3867 11.5127C26.3867 12.4213 25.6498 13.1582 24.7412 13.1582C23.8328 13.158 23.0967 12.4211 23.0967 11.5127C23.0969 10.6044 23.8329 9.86836 24.7412 9.86816Z" fill="#000A0A"/>
</svg>
