<svg width="40" height="40" viewBox="0 0 40 40" fill="none" xmlns="http://www.w3.org/2000/svg">
<path d="M26.1689 2.40039C29.8186 2.40045 33.7095 3.47804 35.9453 6.59961L36.3652 7.20996C38.4097 10.3048 39.5996 14.0142 39.5996 18C39.5996 28.8248 30.8248 37.5996 20 37.5996C9.17522 37.5996 0.400391 28.8248 0.400391 18C0.400391 13.7486 1.75415 9.81174 4.05469 6.59961C6.29047 3.47804 10.1814 2.40045 13.8311 2.40039H26.1689ZM13.8311 3.59961C10.3588 3.59967 6.9415 4.62943 5.03027 7.29785C2.87069 10.313 1.59961 14.0073 1.59961 18C1.59961 28.162 9.83796 36.4004 20 36.4004C30.162 36.4004 38.4004 28.162 38.4004 18C38.4004 14.2569 37.2833 10.776 35.3643 7.87109L34.9697 7.29785C33.0585 4.62943 29.6412 3.59967 26.1689 3.59961H13.8311ZM14.5234 22C17.2849 22 19.5234 24.2386 19.5234 27C19.5234 29.7614 17.2849 32 14.5234 32C11.762 32 9.52344 29.7614 9.52344 27C9.52344 24.2386 11.762 22 14.5234 22ZM25.3594 22C28.1208 22 30.3594 24.2386 30.3594 27C30.3594 29.7614 28.1208 32 25.3594 32C22.598 32 20.3594 29.7614 20.3594 27C20.3594 24.2386 22.598 22 25.3594 22ZM14.5234 23.2002C12.4248 23.2002 10.7236 24.9013 10.7236 27C10.7236 29.0987 12.4248 30.7998 14.5234 30.7998C16.6221 30.7998 18.3232 29.0987 18.3232 27C18.3232 24.9013 16.6221 23.2002 14.5234 23.2002ZM25.3594 23.2002C23.2607 23.2002 21.5596 24.9013 21.5596 27C21.5596 29.0987 23.2607 30.7998 25.3594 30.7998C27.4581 30.7998 29.1592 29.0987 29.1592 27C29.1592 24.9013 27.4581 23.2002 25.3594 23.2002ZM14.7959 24.3525C16.1381 24.4888 17.1855 25.6228 17.1855 27.001L17.1719 27.2725C17.0354 28.6143 15.9022 29.6619 14.5244 29.6621L14.252 29.6484C12.9993 29.5213 12.0033 28.525 11.876 27.2725L11.8623 27.001C11.8623 25.531 13.0544 24.3389 14.5244 24.3389L14.7959 24.3525ZM25.6309 24.3525C26.9731 24.4888 28.0205 25.6228 28.0205 27.001L28.0068 27.2725C27.8704 28.6143 26.7371 29.6619 25.3594 29.6621L25.0869 29.6484C23.8343 29.5213 22.8383 28.525 22.7109 27.2725L22.6973 27.001C22.6973 25.531 23.8894 24.3389 25.3594 24.3389L25.6309 24.3525ZM14.5244 25.5391C13.7172 25.5391 13.0625 26.1937 13.0625 27.001C13.063 27.8078 13.7175 28.4619 14.5244 28.4619C15.3311 28.4617 15.9848 27.8076 15.9854 27.001C15.9854 26.1939 15.3314 25.5393 14.5244 25.5391ZM25.3594 25.5391C24.5521 25.5391 23.8975 26.1937 23.8975 27.001C23.898 27.8078 24.5525 28.4619 25.3594 28.4619C26.1661 28.4617 26.8198 27.8076 26.8203 27.001C26.8203 26.1939 26.1664 25.5393 25.3594 25.5391ZM9.10547 12.7178C11.8669 12.7178 14.1055 14.9563 14.1055 17.7178C14.1055 20.4792 11.8669 22.7178 9.10547 22.7178C6.34404 22.7178 4.10547 20.4792 4.10547 17.7178C4.10547 14.9563 6.34404 12.7178 9.10547 12.7178ZM20 12.7178C22.7614 12.7178 25 14.9563 25 17.7178C25 20.4792 22.7614 22.7178 20 22.7178C17.2386 22.7178 15 20.4792 15 17.7178C15 14.9563 17.2386 12.7178 20 12.7178ZM30.7764 12.7178C33.5378 12.7178 35.7764 14.9563 35.7764 17.7178C35.7764 20.4792 33.5378 22.7178 30.7764 22.7178C28.0149 22.7178 25.7764 20.4792 25.7764 17.7178C25.7764 14.9563 28.0149 12.7178 30.7764 12.7178ZM9.10547 13.918C7.00679 13.918 5.30566 15.6191 5.30566 17.7178C5.30566 19.8165 7.00679 21.5176 9.10547 21.5176C11.2042 21.5176 12.9053 19.8165 12.9053 17.7178C12.9053 15.6191 11.2042 13.918 9.10547 13.918ZM20 13.918C17.9013 13.918 16.2002 15.6191 16.2002 17.7178C16.2002 19.8165 17.9013 21.5176 20 21.5176C22.0987 21.5176 23.7998 19.8165 23.7998 17.7178C23.7998 15.6191 22.0987 13.918 20 13.918ZM30.7764 13.918C28.6777 13.918 26.9766 15.6191 26.9766 17.7178C26.9766 19.8165 28.6777 21.5176 30.7764 21.5176C32.875 21.5176 34.5762 19.8165 34.5762 17.7178C34.5762 15.6191 32.875 13.918 30.7764 13.918ZM9.37793 15.0703C10.7201 15.2066 11.7676 16.3406 11.7676 17.7188L11.7539 17.9902C11.6175 19.3321 10.4842 20.3796 9.10645 20.3799L8.83398 20.3662C7.58135 20.2391 6.58536 19.2428 6.45801 17.9902L6.44434 17.7188C6.44434 16.2488 7.63647 15.0566 9.10645 15.0566L9.37793 15.0703ZM20.2715 15.0703C21.6137 15.2066 22.6611 16.3406 22.6611 17.7188L22.6475 17.9902C22.511 19.3321 21.3778 20.3796 20 20.3799L19.7275 20.3662C18.4749 20.2391 17.4789 19.2428 17.3516 17.9902L17.3379 17.7188C17.3379 16.2488 18.53 15.0566 20 15.0566L20.2715 15.0703ZM31.0488 15.0703C32.391 15.2066 33.4385 16.3406 33.4385 17.7188L33.4248 17.9902C33.2884 19.3321 32.1551 20.3796 30.7773 20.3799L30.5049 20.3662C29.2522 20.2391 28.2563 19.2428 28.1289 17.9902L28.1152 17.7188C28.1152 16.2488 29.3074 15.0566 30.7773 15.0566L31.0488 15.0703ZM9.10645 16.2568C8.29921 16.2568 7.64453 16.9115 7.64453 17.7188C7.64506 18.5255 8.29954 19.1797 9.10645 19.1797C9.91313 19.1794 10.5669 18.5254 10.5674 17.7188C10.5674 16.9117 9.91345 16.2571 9.10645 16.2568ZM20 16.2568C19.1928 16.2568 18.5381 16.9115 18.5381 17.7188C18.5386 18.5255 19.1931 19.1797 20 19.1797C20.8067 19.1794 21.4604 18.5254 21.4609 17.7188C21.4609 16.9117 20.807 16.2571 20 16.2568ZM30.7773 16.2568C29.9701 16.2568 29.3154 16.9115 29.3154 17.7188C29.316 18.5255 29.9704 19.1797 30.7773 19.1797C31.584 19.1794 32.2378 18.5254 32.2383 17.7188C32.2383 16.9117 31.5844 16.2571 30.7773 16.2568ZM14.377 6.57812C16.3099 6.57812 17.877 8.14513 17.877 10.0781C17.8768 12.011 16.3099 13.5781 14.377 13.5781C12.444 13.5781 10.8771 12.011 10.877 10.0781C10.877 8.14513 12.444 6.57812 14.377 6.57812ZM25.2129 6.57812C27.1459 6.57812 28.7129 8.14513 28.7129 10.0781C28.7128 12.011 27.1458 13.5781 25.2129 13.5781C23.28 13.5781 21.713 12.011 21.7129 10.0781C21.7129 8.14513 23.2799 6.57812 25.2129 6.57812ZM14.377 7.37793C12.8858 7.37793 11.6768 8.58696 11.6768 10.0781C11.6769 11.5692 12.8859 12.7783 14.377 12.7783C15.868 12.7783 17.077 11.5692 17.0771 10.0781C17.0771 8.58696 15.8681 7.37793 14.377 7.37793ZM25.2129 7.37793C23.7217 7.37793 22.5127 8.58696 22.5127 10.0781C22.5128 11.5692 23.7218 12.7783 25.2129 12.7783C26.704 12.7783 27.913 11.5692 27.9131 10.0781C27.9131 8.58696 26.7041 7.37793 25.2129 7.37793ZM14.5801 8.10352C15.5808 8.20488 16.3623 9.05063 16.3623 10.0781L16.3516 10.2803C16.2502 11.2809 15.4053 12.0624 14.3779 12.0625L14.1748 12.0518C13.2408 11.9569 12.4979 11.2143 12.4033 10.2803L12.3936 10.0781C12.3936 8.98232 13.2821 8.09375 14.3779 8.09375L14.5801 8.10352ZM25.415 8.10352C26.4158 8.20488 27.1973 9.05063 27.1973 10.0781L27.1865 10.2803C27.0851 11.2809 26.2403 12.0624 25.2129 12.0625L25.0098 12.0518C24.0758 11.9569 23.3329 11.2143 23.2383 10.2803L23.2285 10.0781C23.2285 8.98232 24.1171 8.09375 25.2129 8.09375L25.415 8.10352ZM14.3779 8.89355C13.724 8.89355 13.1934 9.42415 13.1934 10.0781C13.1935 10.732 13.724 11.2617 14.3779 11.2617C15.0317 11.2616 15.5614 10.7319 15.5615 10.0781C15.5615 9.42423 15.0318 8.89369 14.3779 8.89355ZM25.2129 8.89355C24.5589 8.89355 24.0283 9.42415 24.0283 10.0781C24.0285 10.732 24.559 11.2617 25.2129 11.2617C25.8667 11.2616 26.3964 10.7319 26.3965 10.0781C26.3965 9.42423 25.8668 8.89369 25.2129 8.89355Z" fill="currentColor"/>
</svg>
