<svg width="40" height="40" viewBox="0 0 40 40" fill="none" xmlns="http://www.w3.org/2000/svg">
<path d="M12.7998 18C12.7998 16.4536 11.5464 15.2002 10 15.2002C8.4536 15.2002 7.2002 16.4536 7.2002 18C7.2002 19.5464 8.4536 20.7998 10 20.7998V22C7.79086 22 6 20.2091 6 18C6 15.7909 7.79086 14 10 14C12.2091 14 14 15.7909 14 18C14 20.2091 12.2091 22 10 22V20.7998C11.5464 20.7998 12.7998 19.5464 12.7998 18Z" fill="#000A0A"/>
<path d="M17.7998 27C17.7998 25.4536 16.5464 24.2002 15 24.2002C13.4536 24.2002 12.2002 25.4536 12.2002 27C12.2002 28.5464 13.4536 29.7998 15 29.7998V31C12.7909 31 11 29.2091 11 27C11 24.7909 12.7909 23 15 23C17.2091 23 19 24.7909 19 27C19 29.2091 17.2091 31 15 31V29.7998C16.5464 29.7998 17.7998 28.5464 17.7998 27Z" fill="#000A0A"/>
<path d="M16.7998 11C16.7998 10.0059 15.9941 9.2002 15 9.2002C14.0059 9.2002 13.2002 10.0059 13.2002 11C13.2002 11.9941 14.0059 12.7998 15 12.7998V14C13.3431 14 12 12.6569 12 11C12 9.34315 13.3431 8 15 8C16.6569 8 18 9.34315 18 11C18 12.6569 16.6569 14 15 14V12.7998C15.9941 12.7998 16.7998 11.9941 16.7998 11Z" fill="#000A0A"/>
<path d="M26.7998 11C26.7998 10.0059 25.9941 9.2002 25 9.2002C24.0059 9.2002 23.2002 10.0059 23.2002 11C23.2002 11.9941 24.0059 12.7998 25 12.7998V14C23.3431 14 22 12.6569 22 11C22 9.34315 23.3431 8 25 8C26.6569 8 28 9.34315 28 11C28 12.6569 26.6569 14 25 14V12.7998C25.9941 12.7998 26.7998 11.9941 26.7998 11Z" fill="#000A0A"/>
<path d="M22.7998 18C22.7998 16.4536 21.5464 15.2002 20 15.2002C18.4536 15.2002 17.2002 16.4536 17.2002 18C17.2002 19.5464 18.4536 20.7998 20 20.7998V22C17.7909 22 16 20.2091 16 18C16 15.7909 17.7909 14 20 14C22.2091 14 24 15.7909 24 18C24 20.2091 22.2091 22 20 22V20.7998C21.5464 20.7998 22.7998 19.5464 22.7998 18Z" fill="#000A0A"/>
<path d="M27.7998 27C27.7998 25.4536 26.5464 24.2002 25 24.2002C23.4536 24.2002 22.2002 25.4536 22.2002 27C22.2002 28.5464 23.4536 29.7998 25 29.7998V31C22.7909 31 21 29.2091 21 27C21 24.7909 22.7909 23 25 23C27.2091 23 29 24.7909 29 27C29 29.2091 27.2091 31 25 31V29.7998C26.5464 29.7998 27.7998 28.5464 27.7998 27Z" fill="#000A0A"/>
<path d="M32.7998 18C32.7998 16.4536 31.5464 15.2002 30 15.2002C28.4536 15.2002 27.2002 16.4536 27.2002 18C27.2002 19.5464 28.4536 20.7998 30 20.7998V22C27.7909 22 26 20.2091 26 18C26 15.7909 27.7909 14 30 14C32.2091 14 34 15.7909 34 18C34 20.2091 32.2091 22 30 22V20.7998C31.5464 20.7998 32.7998 19.5464 32.7998 18Z" fill="#000A0A"/>
<path d="M20 37C30.4934 37 39 28.4934 39 18C39 11.9029 36.1281 6.47662 31.6633 3H8.33668C3.87187 6.47662 1 11.9029 1 18C1 28.4934 9.50659 37 20 37Z" stroke="black" stroke-width="1.2"/>
</svg>
