<svg width="512" height="512" viewBox="0 0 512 512" fill="none" xmlns="http://www.w3.org/2000/svg">
<rect width="512" height="512" fill="white"/>
<path d="M229.269 497.775V423.194L265.735 340.48H298.616L229.269 497.775ZM282.963 168.591L281.672 171.52H213.411L282.963 13.7569V168.591Z" fill="#000A0A"/>
<path d="M248.522 497.776H229.266L298.612 340.48H317.87L248.522 497.776ZM282.958 171.521H269.767L282.958 141.602V171.521Z" fill="#008C92"/>
<path fill-rule="evenodd" clip-rule="evenodd" d="M481.916 192.1H66.1605H65.7628L30.0752 273.049H56.7226C57.6699 270.666 68.2394 246.864 88.4318 201.642C88.7189 200.708 89.5807 200.24 91.017 200.24H183.553C188.149 200.24 191.991 201.139 195.08 202.935C198.742 205.236 200.573 208.507 200.573 212.749C200.573 217.35 198.599 221.735 194.649 225.905C191.345 229.355 187.288 232.195 182.476 234.424C185.277 236.94 186.677 240.103 186.677 243.913C186.677 246.429 186.031 249.09 184.738 251.893C181.937 258.148 177.269 263.431 170.734 267.745C166.932 270.227 163.107 271.995 159.257 273.049H194.874C195.82 270.666 206.389 246.864 226.582 201.642C227.013 200.708 227.875 200.24 229.167 200.24H321.703C326.443 200.24 330.286 201.102 333.23 202.828C336.964 205.057 338.832 208.328 338.832 212.641C338.832 218.248 336.246 223.568 331.075 228.6C323.247 236.437 313.298 240.355 301.236 240.355H260.192C259.261 240.355 258.792 240.031 258.792 239.384C258.792 239.169 258.828 239.025 258.9 238.953L263.316 228.924C263.604 227.989 264.465 227.522 265.902 227.522H279.798C282.527 227.522 285.221 226.911 287.878 225.689C290.894 224.251 292.869 222.418 293.802 220.189C294.161 219.111 294.341 218.32 294.341 217.817C294.341 214.582 291.645 212.965 286.262 212.965H264.178L237.57 272.813C237.532 272.895 237.491 272.973 237.447 273.049H331.632C331.645 272.983 331.652 272.904 331.652 272.813L336.068 262.892C336.499 261.958 337.361 261.491 338.654 261.491H386.484L359.552 236.904C354.382 232.303 351.796 227.594 351.796 222.777C351.796 217.314 354.885 212.533 361.06 208.435C363.502 206.854 366.105 205.488 368.871 204.338C371.636 203.187 374.634 202.253 377.866 201.534C381.959 200.671 386.053 200.24 390.146 200.24H444.037C444.97 200.24 445.437 200.563 445.437 201.211C445.437 201.426 445.401 201.57 445.329 201.642L440.913 211.67C440.482 212.533 439.619 212.965 438.327 212.965H402.104L428.712 237.874C435.319 244.057 438.623 249.772 438.623 255.02C438.623 262.282 432.877 267.565 421.387 270.872C418.271 271.784 414.962 272.509 411.461 273.049H446.402L481.916 192.1ZM156.191 217.817C156.191 218.464 156.011 219.255 155.652 220.189C154.575 222.49 152.6 224.323 149.727 225.689C147.07 226.911 144.372 227.522 141.648 227.522H127.751C126.392 227.522 125.489 227.989 125.058 228.924L120.642 238.953C120.642 239.096 120.605 239.24 120.534 239.384C120.534 240.031 121.036 240.355 122.042 240.355H135.939C140.248 240.355 142.402 242.295 142.402 246.178C142.402 249.988 140.715 253.511 137.339 256.746C133.964 259.909 130.368 261.491 126.566 261.491H104.483L126.027 212.965H148.112C153.498 212.965 156.191 214.582 156.191 217.817Z" fill="#008C92"/>
<path d="M89.3234 319.9C89.9829 319.9 90.4168 319.674 90.6249 319.222L92.7596 314.428C92.7596 314.323 92.7769 314.254 92.8116 314.219C92.8116 313.906 92.5685 313.75 92.0825 313.75H68.3944C65.9996 313.75 64.8022 312.743 64.8022 310.727C64.8022 309.338 65.4789 307.149 66.8325 304.161L69.3317 298.48C70.5117 295.77 71.6568 293.86 72.7678 292.748C74.3298 291.115 76.3427 290.298 78.8069 290.298H102.495C103.155 290.298 103.571 290.09 103.745 289.673L105.879 284.826C105.914 284.791 105.931 284.722 105.931 284.618C105.931 284.305 105.706 284.148 105.254 284.148H70.0087C64.8719 284.148 59.9952 285.955 55.379 289.569C51.1794 292.834 47.9514 296.987 45.6956 302.024C44.3418 305.012 43.665 307.792 43.665 310.363C43.665 313.42 44.637 315.817 46.5805 317.555C48.3853 319.118 50.8845 319.9 54.0775 319.9H89.3234ZM96.6643 303.536C97.3237 303.536 97.7227 303.31 97.8614 302.858C99.3543 299.627 100.1 297.959 100.1 297.855C100.1 297.507 99.8747 297.334 99.4234 297.334H74.3298C73.7394 297.334 73.3405 297.56 73.1323 298.011C71.6741 301.312 70.9454 302.997 70.9454 303.067C70.9454 303.379 71.1535 303.536 71.5704 303.536H96.6643ZM175.122 319.9C175.816 319.9 176.232 319.674 176.371 319.222L191.677 284.826C191.712 284.791 191.729 284.722 191.729 284.618C191.729 284.305 191.504 284.148 191.053 284.148H183.868C183.174 284.148 182.758 284.374 182.618 284.826L176.059 299.523L139.719 284.826C138.678 284.374 137.793 284.148 137.064 284.148H129.047C128.422 284.148 128.005 284.374 127.797 284.826L112.491 319.222C112.456 319.257 112.439 319.326 112.439 319.431C112.439 319.744 112.682 319.9 113.168 319.9H120.352C120.977 319.9 121.394 319.674 121.602 319.222L128.006 304.786L163.668 319.118C164.952 319.639 165.993 319.9 166.792 319.9H175.122ZM244.52 319.9C245.18 319.9 245.613 319.674 245.822 319.222L247.956 314.428C247.956 314.323 247.974 314.254 248.009 314.219C248.009 313.906 247.765 313.75 247.28 313.75H223.591C221.196 313.75 219.999 312.743 219.999 310.727C219.999 309.338 220.676 307.149 222.029 304.161L224.529 298.48C225.709 295.77 226.854 293.86 227.964 292.748C229.526 291.115 231.539 290.298 234.004 290.298H257.692C258.351 290.298 258.768 290.09 258.941 289.673L261.076 284.826C261.111 284.791 261.128 284.722 261.128 284.618C261.128 284.305 260.902 284.148 260.451 284.148H225.205C220.068 284.148 215.192 285.955 210.576 289.569C206.376 292.834 203.148 296.987 200.892 302.024C199.539 305.012 198.862 307.792 198.862 310.363C198.862 313.42 199.834 315.817 201.777 317.555C203.582 319.118 206.081 319.9 209.274 319.9H244.52ZM251.861 303.536C252.52 303.536 252.92 303.31 253.058 302.858C254.551 299.627 255.297 297.959 255.297 297.855C255.297 297.507 255.072 297.334 254.62 297.334H229.526C228.936 297.334 228.537 297.56 228.329 298.011C226.871 301.312 226.143 302.997 226.143 303.067C226.143 303.379 226.351 303.536 226.767 303.536H251.861ZM330.527 319.9C331.429 319.9 331.88 319.639 331.88 319.118C331.88 319.014 328.305 313.768 321.155 303.379C324.383 302.858 327.299 301.816 329.902 300.252C332.852 298.411 334.917 296.17 336.097 293.529C336.618 292.452 336.878 291.323 336.878 290.142C336.878 288.057 336.011 286.494 334.275 285.451C332.887 284.583 331.065 284.148 328.809 284.148H284.087C283.463 284.148 283.046 284.374 282.838 284.826C272.599 307.757 267.48 319.292 267.48 319.431C267.48 319.744 267.723 319.9 268.208 319.9H286.899C287.593 319.9 288.009 319.674 288.148 319.222L301.007 290.298H311.68C314.283 290.298 315.585 291.08 315.585 292.643C315.585 292.956 315.498 293.338 315.325 293.79C314.873 294.867 313.919 295.753 312.461 296.448C311.177 297.039 309.875 297.334 308.557 297.334H301.84C301.216 297.334 300.799 297.56 300.591 298.011L298.821 301.972L298.873 302.337L310.118 319.639C310.223 319.813 310.431 319.9 310.743 319.9H330.527ZM392.168 319.9C392.793 319.9 393.209 319.674 393.418 319.222C400.047 304.283 403.361 296.795 403.361 296.76C403.361 296.448 403.119 296.292 402.633 296.292H383.942C383.318 296.292 382.901 296.517 382.693 296.969L375.248 313.75H369.417C367.022 313.75 365.825 312.743 365.825 310.727C365.825 309.338 366.501 307.149 367.855 304.161L370.354 298.48C371.534 295.77 372.679 293.86 373.79 292.748C375.352 291.115 377.365 290.298 379.83 290.298H401.643C402.268 290.298 402.685 290.09 402.893 289.673L405.027 284.826C405.062 284.791 405.079 284.722 405.079 284.618C405.079 284.305 404.836 284.148 404.35 284.148H371.031C365.894 284.148 361.018 285.955 356.402 289.569C352.237 292.834 349.009 296.987 346.718 302.024C345.364 305.012 344.688 307.792 344.688 310.363C344.688 313.42 345.66 315.817 347.603 317.555C349.408 319.118 351.907 319.9 355.1 319.9H392.168ZM445.532 304.317L474.478 285.243C474.86 284.965 475.051 284.739 475.051 284.565C475.051 284.287 474.791 284.148 474.27 284.148H467.398C467.085 284.148 466.791 284.235 466.513 284.409L446.313 297.803L438.035 284.409C437.861 284.235 437.653 284.148 437.41 284.148H413.93C413.062 284.148 412.629 284.409 412.629 284.93C412.629 285.035 416.672 291.584 424.759 304.578C420.386 314.445 418.199 319.396 418.199 319.431C418.199 319.744 418.425 319.9 418.876 319.9H437.67C438.261 319.9 438.659 319.674 438.868 319.222L445.532 304.317Z" fill="#000A0A"/>
</svg>
