<svg width="345" height="38" viewBox="0 0 345 38" fill="none" xmlns="http://www.w3.org/2000/svg">
<g clip-path="url(#clip0_2430_6724)">
<path d="M335.127 9.01611H317.653C312.214 9.01611 307.743 13.487 307.743 18.9637C307.743 24.4033 312.214 28.8741 317.653 28.8741H335.127C340.603 28.8741 345.074 24.4033 345.074 18.9637C345.074 13.487 340.603 9.01611 335.127 9.01611Z" fill="white"/>
<path fill-rule="evenodd" clip-rule="evenodd" d="M345.074 18.9637C345.074 24.4033 340.603 28.8741 335.127 28.8741H317.653C312.214 28.8741 307.743 24.4033 307.743 18.9637C307.743 13.487 312.214 9.01611 317.653 9.01611H335.127C340.603 9.01611 345.074 13.487 345.074 18.9637ZM317.653 9.83577C316.461 9.83577 315.269 10.0593 314.114 10.5437C313.033 10.9907 312.064 11.6614 311.245 12.5183C310.388 13.3379 309.717 14.3066 309.27 15.4243C308.786 16.542 308.562 17.7343 308.562 18.9637C308.562 20.156 308.786 21.3482 309.27 22.5032C309.717 23.5836 310.388 24.5523 311.245 25.3719C312.064 26.2289 313.033 26.8995 314.114 27.3466C315.269 27.8309 316.461 28.0545 317.653 28.0545H335.127C336.356 28.0545 337.548 27.8309 338.666 27.3466C339.784 26.8995 340.752 26.2289 341.572 25.3719C342.429 24.5523 343.062 23.5836 343.547 22.5032C344.031 21.3482 344.255 20.156 344.255 18.9637C344.255 17.7343 344.031 16.542 343.547 15.4243C343.062 14.3066 342.429 13.3379 341.572 12.5183C340.752 11.6614 339.784 10.9907 338.666 10.5437C337.548 10.0593 336.356 9.83577 335.127 9.83577H317.653Z" fill="#8F9194"/>
<path fill-rule="evenodd" clip-rule="evenodd" d="M325.552 22.6522H324.583V15.238H327.117C327.763 15.238 328.309 15.4492 328.756 15.8714C329.203 16.2937 329.427 16.8153 329.427 17.4362C329.427 18.082 329.203 18.6036 328.756 19.001C328.309 19.4232 327.763 19.6344 327.117 19.6344H325.552V22.6522ZM325.552 18.7402H327.117C327.514 18.7402 327.837 18.616 328.085 18.3676C328.334 18.1192 328.458 17.8212 328.458 17.4735C328.458 17.1257 328.334 16.8153 328.085 16.542C327.837 16.2937 327.514 16.1695 327.117 16.1695H325.552V18.7402Z" fill="#8F9194"/>
<path fill-rule="evenodd" clip-rule="evenodd" d="M331.923 17.3989C332.618 17.3989 333.177 17.5976 333.599 17.995C333.997 18.3676 334.195 18.8768 334.195 19.5226V22.6522H333.301V21.9443H333.264C332.866 22.5404 332.332 22.826 331.662 22.8012C331.115 22.826 330.656 22.6646 330.283 22.3169C329.911 21.994 329.724 21.5841 329.724 21.0874C329.724 20.5658 329.923 20.1435 330.32 19.8206C330.718 19.5226 331.239 19.3735 331.885 19.3735C332.457 19.3735 332.928 19.4729 333.301 19.6716V19.4481C333.301 19.1252 333.164 18.8519 332.891 18.6284C332.643 18.38 332.332 18.2558 331.96 18.2558C331.438 18.2558 331.028 18.4794 330.73 18.9265L329.873 18.4049C330.345 17.7342 331.028 17.3989 331.923 17.3989ZM330.693 21.0874C330.693 21.3358 330.805 21.5469 331.028 21.7207C331.227 21.8946 331.463 21.9815 331.736 21.9815C332.158 21.9815 332.519 21.8325 332.817 21.5345C333.14 21.2364 333.301 20.8762 333.301 20.454C333.003 20.2305 332.581 20.1187 332.034 20.1187C331.662 20.1187 331.351 20.2056 331.103 20.3795C330.83 20.5782 330.693 20.8142 330.693 21.0874Z" fill="#8F9194"/>
<path d="M339.374 17.5852L336.207 24.8876H335.238L336.393 22.3168L334.307 17.5852H335.35L336.84 21.2364H336.878L338.331 17.5852H339.374Z" fill="#8F9194"/>
<path d="M321.751 19.0382C321.751 18.7402 321.727 18.4421 321.677 18.144H317.69V19.7834H319.963C319.889 20.3422 319.591 20.7893 319.106 21.1246V22.1678H320.485C321.304 21.4227 321.751 20.3422 321.751 19.0382Z" fill="#8F9194"/>
<path d="M319.106 21.1248C318.734 21.3856 318.249 21.5347 317.691 21.5347C316.573 21.5347 315.641 20.7523 315.306 19.7463H313.89V20.864C314.561 22.2426 316.014 23.2112 317.691 23.2112C318.808 23.2112 319.777 22.8387 320.485 22.168L319.106 21.1248Z" fill="#8F9194"/>
<path d="M315.156 18.9637C315.156 18.6657 315.206 18.3925 315.305 18.1441V17.0264H313.89C313.592 17.6225 313.443 18.2558 313.443 18.9637C313.443 19.6344 313.592 20.2677 313.89 20.8638L315.305 19.7461C315.206 19.4977 315.156 19.237 315.156 18.9637Z" fill="#8F9194"/>
<path d="M317.691 16.3931C318.287 16.3931 318.883 16.5794 319.293 17.0265L320.522 15.797C319.777 15.1264 318.808 14.7166 317.691 14.7166C316.014 14.7166 314.561 15.648 313.89 17.0265L315.306 18.1442C315.641 17.1383 316.573 16.3931 317.691 16.3931Z" fill="#8F9194"/>
<path fill-rule="evenodd" clip-rule="evenodd" d="M270.523 23.36C268.213 23.36 266.239 21.3482 266.239 18.6656L269.704 14.9399C272.647 14.7537 274.659 16.9146 274.659 19.1872C274.659 19.5598 274.622 19.92 274.547 20.2677H268.623C268.996 20.9011 269.666 21.3482 270.486 21.3482H273.578V23.36H270.523ZM268.66 18.144H272.423C272.051 17.4734 271.343 17.0263 270.523 17.0263C269.704 17.0263 268.996 17.4734 268.66 18.144Z" fill="#8F9194"/>
<path fill-rule="evenodd" clip-rule="evenodd" d="M259.905 15.7969C260.278 15.4988 261.097 15.1635 261.992 15.1635C264.264 15.1635 266.127 17.0263 266.127 19.3363C266.127 21.6462 264.264 23.5091 261.992 23.5091C259.682 23.5091 257.819 21.6462 257.819 19.3363V13.3379H259.905V15.7969ZM264.115 19.3363C264.115 18.144 263.147 17.1754 261.992 17.1754C260.799 17.1754 259.831 18.144 259.831 19.3363C259.831 20.5285 260.799 21.4599 261.992 21.4599C263.147 21.4599 264.115 20.5285 264.115 19.3363Z" fill="#8F9194"/>
<path fill-rule="evenodd" clip-rule="evenodd" d="M305.097 13.3379V20.5658L301.632 23.5091C298.503 23.5091 296.789 21.6462 296.789 19.3363C296.789 17.0263 298.652 15.1635 300.962 15.1635C301.819 15.1635 302.638 15.4988 303.011 15.7969V13.3379H305.097ZM303.086 19.3363C303.086 18.144 302.154 17.1754 300.962 17.1754C299.77 17.1754 298.801 18.144 298.801 19.3363C298.801 20.5285 299.77 21.4972 300.962 21.4972C302.154 21.4972 303.086 20.5285 303.086 19.3363Z" fill="#8F9194"/>
<path fill-rule="evenodd" clip-rule="evenodd" d="M277.937 25.2229H275.851L275.814 19.3736V19.1873C275.814 16.9146 277.677 15.0518 279.987 15.0518C282.296 15.0518 284.159 16.9146 284.159 19.1873C284.159 21.4972 282.296 23.3601 279.987 23.3601C279.13 23.3601 278.31 23.0248 277.937 22.7267V25.2229ZM282.11 19.2245C282.11 18.0323 281.179 17.0636 279.987 17.0636C278.794 17.0636 277.826 18.0323 277.826 19.2245C277.826 20.4168 278.794 21.3855 279.987 21.3855C281.179 21.3855 282.11 20.4168 282.11 19.2245Z" fill="#8F9194"/>
<path fill-rule="evenodd" clip-rule="evenodd" d="M290.605 21.3856L288.518 23.472C286.208 23.472 284.308 21.5719 284.308 19.2619C284.308 16.9148 286.208 15.0146 288.518 15.0146C290.866 15.0146 292.728 16.9148 292.728 19.2619V23.3602H290.605V21.3856ZM290.717 19.2992C290.717 18.0697 289.748 17.101 288.518 17.101C287.326 17.101 286.357 18.0697 286.357 19.2992C286.357 20.4914 287.326 21.4601 288.518 21.4601C289.748 21.4601 290.717 20.4914 290.717 19.2992Z" fill="#8F9194"/>
<path d="M293.735 17.1011H295.821V23.3603H293.735V17.1011Z" fill="#8F9194"/>
<path d="M293.735 13.3379H295.821V15.387H293.735V13.3379Z" fill="#C1C2C4"/>
<path fill-rule="evenodd" clip-rule="evenodd" d="M172.76 31.892C172.76 32.8979 172.015 33.643 170.972 33.643C169.966 33.643 169.146 32.9724 169.146 31.7057V31.0723C169.146 29.8428 169.742 28.9486 170.86 28.7624L172.462 28.5388V29.2094L171.009 29.3585C170.338 29.5075 169.928 29.9546 169.891 30.8115C170.152 30.3272 170.636 30.1781 171.083 30.1781C172.052 30.1781 172.76 30.886 172.76 31.892ZM172.015 31.892C172.015 31.2586 171.568 30.8115 170.972 30.8115C170.338 30.8115 169.891 31.2586 169.891 31.892C169.891 32.4881 170.338 32.9351 170.972 32.9351C171.568 32.9351 172.015 32.4881 172.015 31.892Z" fill="#636366"/>
<path fill-rule="evenodd" clip-rule="evenodd" d="M173.99 32.0784C174.027 32.6373 174.475 33.0099 175.033 33.0099C175.443 33.0099 175.741 32.8236 175.89 32.6H176.635C176.412 33.1961 175.816 33.6432 175.033 33.6432C173.99 33.6432 173.208 32.9353 173.208 31.8549C173.208 30.8117 173.953 30.0293 174.959 30.0293C175.928 30.0293 176.635 30.6627 176.747 31.7804C176.747 31.8797 176.747 31.9791 176.747 32.0784H173.99ZM175.965 31.5196C175.965 30.998 175.555 30.6627 174.996 30.6627C174.437 30.6627 174.027 30.998 173.99 31.5196H175.965Z" fill="#636366"/>
<path d="M177.007 32.898C177.268 32.898 177.566 32.749 177.566 32.1902V30.1038H180.285V33.5687H179.503V30.7744H178.274V32.1902C178.274 33.1588 177.715 33.6059 177.007 33.5687V32.898Z" fill="#636366"/>
<path d="M182.335 31.7058L183.974 30.1038H183.117L182.186 30.9979L181.664 31.4823V30.1038H180.956H180.919V33.5687H180.956H181.664V31.9294L182.186 32.5255L183.117 33.5687H184.011L182.335 31.7058Z" fill="#636366"/>
<path fill-rule="evenodd" clip-rule="evenodd" d="M187.7 30.1038V33.5687H186.917V33.0471C186.619 33.4197 186.098 33.6432 185.65 33.6432C185.65 33.6432 185.638 33.6432 185.613 33.6432C185.092 33.6432 184.682 33.4569 184.421 33.1589C184.396 33.134 184.384 33.1216 184.384 33.1216C184.359 33.0968 184.346 33.0844 184.346 33.0844C184.048 32.7366 183.899 32.3268 183.899 31.8549C183.899 31.8549 183.899 31.8425 183.899 31.8176C183.899 31.3333 184.048 30.8862 184.346 30.5882C184.346 30.5633 184.359 30.5509 184.384 30.5509C184.384 30.5509 184.396 30.5385 184.421 30.5136C184.682 30.2156 185.092 30.0293 185.613 30.0293C185.638 30.0293 185.65 30.0293 185.65 30.0293C186.098 30.0293 186.619 30.2528 186.917 30.6254L186.992 30.1038H187.7ZM186.954 31.8176C186.954 31.2215 186.47 30.7372 185.837 30.7372C185.166 30.7372 184.719 31.1843 184.719 31.8176C184.719 32.4883 185.166 32.9353 185.837 32.9353C186.47 32.9353 186.954 32.451 186.954 31.8176Z" fill="#636366"/>
<path fill-rule="evenodd" clip-rule="evenodd" d="M189.004 30.1038L189.116 30.6254C189.414 30.2528 189.898 30.0293 190.382 30.0293C190.407 30.0293 190.42 30.0293 190.42 30.0293C190.904 30.0293 191.314 30.2156 191.612 30.5136C191.637 30.5385 191.649 30.5509 191.649 30.5509C191.649 30.5509 191.662 30.5633 191.686 30.5882C191.947 30.8862 192.133 31.3333 192.133 31.8176C192.133 31.8425 192.133 31.8549 192.133 31.8549C192.133 32.3392 191.947 32.7491 191.686 33.0844C191.662 33.0844 191.649 33.0968 191.649 33.1216C191.649 33.1216 191.637 33.134 191.612 33.1589C191.314 33.4569 190.904 33.6432 190.42 33.6432C190.42 33.6432 190.407 33.6432 190.382 33.6432C189.898 33.6432 189.414 33.4197 189.116 33.0471V35.1335H188.333V30.1038H189.004ZM190.196 32.9353C190.867 32.9353 191.351 32.4883 191.351 31.8176C191.351 31.1843 190.867 30.7372 190.196 30.7372C189.563 30.7372 189.116 31.2215 189.116 31.8176C189.116 32.451 189.563 32.9353 190.196 32.9353Z" fill="#636366"/>
<path d="M197.834 31.4078V33.5687H197.089V31.5941C197.089 30.9607 196.754 30.6999 196.307 30.6999C195.897 30.6999 195.561 30.998 195.561 31.5941V33.5687H194.779V31.5941C194.779 30.9607 194.444 30.6999 194.034 30.6999C193.587 30.6999 193.251 30.998 193.251 31.5941V33.5687H192.506V30.1038H193.177L193.251 30.5882C193.438 30.2528 193.773 30.0293 194.295 30.0293C194.779 30.0293 195.152 30.2156 195.338 30.5882C195.599 30.2528 195.971 30.0293 196.53 30.0293C197.312 30.0293 197.834 30.5509 197.834 31.4078Z" fill="#636366"/>
<path d="M182.297 21.2366L178.683 24.8132C178.422 25.0368 178.422 25.3348 178.534 25.5584C178.608 25.7446 178.832 25.9682 179.167 25.9682L185.538 26.0054C186.022 26.0054 186.432 25.5956 186.432 25.1113C186.432 25.0864 186.432 25.0616 186.432 25.0368C186.47 23.6583 185.911 22.2797 184.905 21.2738C184.197 20.5287 183.042 20.5287 182.297 21.2366Z" fill="#8F9194"/>
<path d="M178.125 18.554L173.058 18.4795C172.723 18.4795 172.499 18.703 172.425 18.9266C172.35 19.1129 172.313 19.4109 172.574 19.6717L177.082 24.1798C177.417 24.5524 177.976 24.5524 178.348 24.2171C178.348 24.1922 178.361 24.1674 178.386 24.1426C179.392 23.1739 179.95 21.7954 179.988 20.4169C179.988 19.3737 179.168 18.554 178.125 18.554Z" fill="#8F9194"/>
<path d="M173.244 17.809C173.268 17.809 173.293 17.809 173.318 17.809C174.697 17.8463 176.075 17.2874 177.081 16.2815C177.826 15.5736 177.826 14.4186 177.118 13.6735L173.542 10.0596C173.318 9.79878 173.02 9.79878 172.796 9.91055C172.61 9.98506 172.387 10.2086 172.387 10.5439L172.349 16.9149C172.349 17.3992 172.759 17.809 173.244 17.809Z" fill="#8F9194"/>
<path d="M174.212 9.76137C175.181 10.7673 176.559 11.3262 177.938 11.3634C178.981 11.3634 179.801 10.5438 179.801 9.50057L179.875 4.43362C179.875 4.09831 179.652 3.87476 179.428 3.80025C179.242 3.72574 178.944 3.68848 178.683 3.94928L174.175 8.45738C173.802 8.79269 173.802 9.35155 174.138 9.72412C174.162 9.72412 174.187 9.73654 174.212 9.76137Z" fill="#8F9194"/>
<path d="M184.682 8.49473L188.296 4.91805C188.557 4.69451 188.557 4.39646 188.445 4.17291C188.371 3.98663 188.147 3.76309 187.812 3.76309L181.441 3.72583C180.956 3.72583 180.547 4.13566 180.547 4.62C180.547 4.64484 180.547 4.66967 180.547 4.69451C180.509 6.07302 181.068 7.45153 182.074 8.45747C182.782 9.20261 183.937 9.20261 184.682 8.49473Z" fill="#8F9194"/>
<path d="M188.855 11.1772L193.922 11.2517C194.257 11.2517 194.481 11.0281 194.555 10.8046C194.63 10.6183 194.667 10.3203 194.406 10.0595L189.898 5.55136C189.563 5.17879 189.004 5.17879 188.631 5.5141C188.631 5.53894 188.619 5.56378 188.594 5.58862C187.588 6.5573 187.029 7.93581 186.992 9.31432C186.992 10.3575 187.812 11.1772 188.855 11.1772Z" fill="#8F9194"/>
<path d="M193.736 11.9222C193.711 11.9222 193.686 11.9222 193.661 11.9222C192.283 11.8849 190.904 12.4438 189.898 13.4497C189.153 14.1576 189.153 15.3125 189.861 16.0577L193.437 19.6716C193.661 19.9324 193.959 19.9324 194.183 19.8207C194.369 19.7461 194.592 19.5226 194.592 19.1873L194.63 12.8163C194.63 12.332 194.22 11.9222 193.736 11.9222Z" fill="#8F9194"/>
<path d="M192.766 19.9697C191.797 18.9638 190.419 18.4049 189.04 18.3677C187.997 18.3677 187.178 19.1873 187.178 20.2305L187.103 25.2975C187.103 25.6328 187.327 25.8563 187.55 25.9309C187.736 26.0054 188.034 26.0426 188.295 25.7818L192.803 21.2737C193.176 20.9384 193.176 20.3796 192.841 20.007C192.816 20.007 192.791 19.9946 192.766 19.9697Z" fill="#8F9194"/>
<path d="M215.198 23.9191C214.639 23.323 213.708 23.323 213.149 23.8819L210.28 26.7134C210.094 26.8997 210.094 27.1232 210.168 27.3095C210.243 27.4586 210.392 27.6448 210.652 27.6448H215.682C216.092 27.6448 216.427 27.3468 216.427 26.937C216.427 26.9121 216.427 26.8997 216.427 26.8997C216.427 25.782 215.98 24.7015 215.198 23.9191Z" fill="#636366"/>
<path d="M211.286 23.2112C211.323 22.4288 210.653 21.7582 209.87 21.7582L205.847 21.7209C205.586 21.7209 205.399 21.87 205.362 22.0563C205.288 22.2053 205.288 22.4661 205.474 22.6524L209.013 26.1918C209.274 26.4898 209.721 26.4898 210.019 26.229C210.019 26.2042 210.032 26.1918 210.057 26.1918C210.839 25.4094 211.286 24.3289 211.286 23.2112Z" fill="#636366"/>
<path d="M209.014 19.9698C209.61 19.4109 209.61 18.4795 209.051 17.9207L206.257 15.0519C206.033 14.8656 205.809 14.8656 205.66 14.9401C205.474 15.0146 205.325 15.1637 205.288 15.4244V20.4914C205.288 20.864 205.586 21.1993 205.996 21.1993C206.021 21.1993 206.033 21.1993 206.033 21.1993C207.151 21.1993 208.231 20.7522 209.014 19.9698Z" fill="#636366"/>
<path d="M212.963 13.785C213.521 14.3811 214.453 14.3811 215.012 13.8223L217.881 11.028C218.067 10.8045 218.067 10.5809 217.992 10.4319C217.918 10.2456 217.769 10.0966 217.508 10.0593H212.478C212.068 10.0593 211.733 10.3574 211.733 10.7672C211.733 10.792 211.733 10.8045 211.733 10.8045C211.733 11.9222 212.18 13.0026 212.963 13.785Z" fill="#636366"/>
<path d="M216.874 14.493C216.837 15.2754 217.507 15.946 218.29 15.946L222.313 15.9832C222.574 15.9832 222.76 15.8342 222.798 15.6479C222.872 15.4989 222.872 15.2754 222.686 15.0891L219.146 11.4751C218.886 11.2143 218.439 11.2143 218.141 11.4751C218.141 11.5 218.128 11.5124 218.103 11.5124C217.321 12.2948 216.874 13.3752 216.874 14.493Z" fill="#636366"/>
<path d="M219.147 17.7344C218.551 18.2932 218.551 19.2246 219.11 19.7835L221.942 22.6523C222.128 22.8386 222.352 22.8386 222.538 22.7641C222.687 22.7268 222.873 22.5405 222.873 22.2797V17.25C222.873 16.8402 222.575 16.5421 222.165 16.5049C222.14 16.5049 222.128 16.5049 222.128 16.5049C221.01 16.5049 219.93 16.952 219.147 17.7344Z" fill="#636366"/>
<path d="M218.44 21.6463C217.658 21.609 216.987 22.2796 216.987 23.062L216.95 27.0858C216.95 27.3466 217.099 27.5329 217.285 27.5701C217.434 27.6446 217.695 27.6446 217.881 27.4584L221.421 23.9189C221.719 23.6581 221.719 23.2111 221.458 22.913C221.433 22.913 221.421 22.9006 221.421 22.8757C220.638 22.0933 219.558 21.6463 218.44 21.6463Z" fill="#636366"/>
<path fill-rule="evenodd" clip-rule="evenodd" d="M211.471 13.6735V14.4187C211.471 15.052 210.95 15.5736 210.316 15.5736H209.907C209.832 15.5736 209.795 15.5364 209.758 15.4619L209.609 14.3069C209.609 14.2572 209.621 14.2324 209.646 14.2324C209.758 14.1206 209.869 13.9716 209.869 13.7853C209.869 13.4872 209.609 13.2637 209.31 13.301C209.087 13.3382 208.901 13.5245 208.901 13.748C208.863 13.9343 208.975 14.1206 209.124 14.2324C209.149 14.2324 209.161 14.2572 209.161 14.3069L208.975 15.4619C208.975 15.5364 208.901 15.5736 208.826 15.5736H208.454C207.82 15.5736 207.299 15.052 207.299 14.4187V13.6735C207.299 13.1892 207.597 12.7421 208.044 12.5931V12.2578C208.044 11.5126 208.64 10.9165 209.385 10.9165C210.13 10.9538 210.726 11.5499 210.726 12.295V12.5931C211.136 12.7421 211.434 13.1519 211.471 13.6735ZM210.428 12.295C210.428 11.6989 209.981 11.2146 209.385 11.2146C208.826 11.2146 208.342 11.6989 208.342 12.2578V12.5186C208.367 12.5186 208.404 12.5186 208.454 12.5186C208.491 12.5186 210.391 12.5186 210.428 12.5186V12.295Z" fill="#636366"/>
<path fill-rule="evenodd" clip-rule="evenodd" d="M230.734 14.4183C230.734 15.2379 230.138 15.7968 229.318 15.7968C228.536 15.7968 227.865 15.2752 227.865 14.3065V13.7849C227.865 12.8535 228.349 12.1456 229.206 11.9593L230.473 11.8103V12.3319L229.318 12.4809C228.796 12.5927 228.498 12.928 228.461 13.5986C228.647 13.2261 229.057 13.1143 229.393 13.1143C230.175 13.1143 230.734 13.6359 230.734 14.4183ZM230.138 14.4183C230.138 13.934 229.802 13.5986 229.318 13.5986C228.834 13.5986 228.461 13.934 228.461 14.4183C228.461 14.9399 228.834 15.2752 229.318 15.2752C229.802 15.2752 230.138 14.9399 230.138 14.4183Z" fill="#636366"/>
<path fill-rule="evenodd" clip-rule="evenodd" d="M231.665 14.6049C231.665 14.6794 231.814 14.9029 232 15.1637C231.975 15.1389 231.938 15.1141 231.889 15.0892C231.963 15.201 232.075 15.3128 232.187 15.4245C232.298 15.6108 232.41 15.7599 232.447 15.7971C231.665 15.7971 231.069 15.2383 231.069 14.3813C231.069 13.5989 231.628 12.9656 232.447 12.9656C233.193 12.9656 233.751 13.4499 233.826 14.3441C233.826 14.4186 233.826 14.5055 233.826 14.6049H231.665ZM232.187 15.4245C232.137 15.35 232.075 15.2631 232 15.1637C232.149 15.2755 232.298 15.3128 232.485 15.3128C232.82 15.3128 233.043 15.1637 233.155 14.9775H233.751C233.602 15.4618 233.118 15.7971 232.485 15.7971C232.485 15.7971 232.336 15.6108 232.187 15.4245ZM231.777 14.9775C231.802 15.0271 231.839 15.0644 231.889 15.0892C231.851 15.0147 231.777 14.9775 231.777 14.9775ZM233.23 14.1205C233.23 13.748 232.894 13.4499 232.447 13.4499C232.038 13.4499 231.702 13.748 231.665 14.1205H233.23Z" fill="#636366"/>
<path d="M234.049 15.2382C234.235 15.2382 234.459 15.1264 234.459 14.6793V13.04H236.582V15.7598H235.986V13.5616H235.055V14.6793C235.055 15.4617 234.608 15.7971 234.012 15.7598L234.049 15.2382Z" fill="#636366"/>
<path d="M238.222 14.3068L239.526 13.04H238.818L238.11 13.7479L237.701 14.1205V13.04H237.142H237.104V15.7598H237.142H237.701V14.4931L238.11 14.9401L238.818 15.7598H239.526L238.222 14.3068Z" fill="#636366"/>
<path fill-rule="evenodd" clip-rule="evenodd" d="M242.432 13.0401V15.7599H241.798V15.35C241.575 15.6481 241.165 15.7971 240.83 15.7971C240.83 15.7971 240.817 15.7971 240.792 15.7971C240.383 15.7971 240.085 15.6853 239.861 15.4245C239.836 15.4245 239.824 15.4121 239.824 15.3873C239.799 15.3873 239.786 15.3873 239.786 15.3873C239.563 15.1389 239.451 14.8036 239.451 14.3813C239.451 14.0088 239.563 13.6735 239.786 13.4127C239.786 13.4127 239.799 13.4002 239.824 13.3754C239.824 13.3754 239.836 13.363 239.861 13.3381C240.085 13.1146 240.383 12.9656 240.792 12.9656C240.817 12.9656 240.83 12.9656 240.83 12.9656C241.165 12.9656 241.575 13.1519 241.798 13.4499L241.873 13.0401H242.432ZM241.836 14.3813C241.836 13.897 241.463 13.5244 240.979 13.5244C240.457 13.5244 240.085 13.897 240.085 14.3813C240.085 14.9029 240.457 15.2755 240.979 15.2755C241.463 15.2755 241.836 14.9029 241.836 14.3813Z" fill="#636366"/>
<path fill-rule="evenodd" clip-rule="evenodd" d="M243.476 13.0401L243.513 13.4499C243.774 13.1519 244.146 12.9656 244.519 12.9656C244.519 12.9656 244.531 12.9656 244.556 12.9656C244.966 12.9656 245.264 13.1146 245.487 13.3381C245.512 13.363 245.525 13.3754 245.525 13.3754C245.525 13.4002 245.537 13.4127 245.562 13.4127C245.786 13.6735 245.897 14.0088 245.897 14.3813C245.897 14.8036 245.786 15.1389 245.562 15.3873C245.537 15.3873 245.525 15.3873 245.525 15.3873C245.525 15.4121 245.512 15.4245 245.487 15.4245C245.264 15.6481 244.966 15.7971 244.556 15.7971C244.531 15.7971 244.519 15.7971 244.519 15.7971C244.146 15.7971 243.774 15.6481 243.513 15.35V16.9893H242.917V13.0401H243.476ZM244.444 15.2755C244.966 15.2755 245.301 14.9029 245.301 14.3813C245.301 13.897 244.966 13.5244 244.444 13.5244C243.923 13.5244 243.55 13.897 243.55 14.3813C243.55 14.9029 243.923 15.2755 244.444 15.2755Z" fill="#636366"/>
<path d="M250.368 14.046V15.7599H249.772V14.1951C249.772 13.7107 249.511 13.4872 249.176 13.4872C248.841 13.4872 248.58 13.748 248.58 14.1951V15.7599H247.984V14.1951C247.984 13.7107 247.723 13.4872 247.388 13.4872C247.052 13.4872 246.791 13.748 246.791 14.1951V15.7599H246.195V13.0401H246.717L246.791 13.4127C246.94 13.1519 247.201 12.9656 247.611 12.9656C247.984 12.9656 248.282 13.1519 248.431 13.4127C248.617 13.1519 248.915 12.9656 249.362 12.9656C249.958 12.9656 250.368 13.3754 250.368 14.046Z" fill="#636366"/>
<path d="M229.951 17.8088H230.435V20.4913H229.877V18.703L228.424 20.4913H227.939V17.8088H228.498V19.5972L229.951 17.8088Z" fill="#636366"/>
<path d="M232.783 17.8088H233.304V20.4913H232.783V19.5227H231.441V20.4913H230.92V17.8088H231.441V18.9638H232.783V17.8088Z" fill="#636366"/>
<path d="M249.324 20.4913V18.2932H248.467V17.8088H250.739V18.2932H249.883V20.4913H249.324Z" fill="#636366"/>
<path fill-rule="evenodd" clip-rule="evenodd" d="M236.732 19.3363C236.769 19.7461 237.104 20.0442 237.552 20.0442C237.85 20.0442 238.073 19.9324 238.185 19.7461H238.781C238.595 20.1932 238.11 20.5285 237.514 20.5285C236.732 20.5285 236.136 19.9696 236.136 19.15C236.136 18.3676 236.695 17.7715 237.477 17.7715C238.222 17.7715 238.781 18.2558 238.855 19.1127C238.855 19.1873 238.855 19.2618 238.855 19.3363H236.732ZM238.259 18.8892C238.222 18.5166 237.924 18.2558 237.477 18.2558C237.067 18.2558 236.732 18.5166 236.732 18.8892H238.259Z" fill="#636366"/>
<path fill-rule="evenodd" clip-rule="evenodd" d="M246.157 19.3363C246.194 19.7461 246.53 20.0442 246.977 20.0442C247.275 20.0442 247.498 19.9324 247.647 19.7461H248.206C248.057 20.1932 247.573 20.5285 246.977 20.5285C246.157 20.5285 245.561 19.9696 245.561 19.15C245.561 18.3676 246.157 17.7715 246.94 17.7715C247.685 17.7715 248.206 18.2558 248.281 19.1127C248.281 19.1873 248.281 19.2618 248.281 19.3363H246.157ZM247.685 18.8892C247.685 18.5166 247.387 18.2558 246.94 18.2558C246.53 18.2558 246.194 18.5166 246.157 18.8892H247.685Z" fill="#636366"/>
<path d="M244.593 17.8088H245.115V20.4913H244.593V19.5227H243.252V20.4913H242.73V17.8088H243.252V18.9638H244.593V17.8088Z" fill="#636366"/>
<path d="M234.57 20.4913V18.2932H233.713V17.8088H235.986V18.2932H235.166V20.4913H234.57Z" fill="#636366"/>
<path fill-rule="evenodd" clip-rule="evenodd" d="M239.861 17.7716L239.936 18.1815C240.159 17.8834 240.569 17.7344 240.904 17.7344C240.904 17.7344 240.917 17.7344 240.942 17.7344C241.351 17.7344 241.65 17.8834 241.873 18.1069C241.873 18.1069 241.885 18.1194 241.91 18.1442C242.134 18.405 242.246 18.7403 242.246 19.1129C242.246 19.5227 242.134 19.858 241.91 20.0816C241.91 20.0816 241.91 20.094 241.91 20.1188C241.885 20.1188 241.873 20.1312 241.873 20.1561C241.65 20.3796 241.314 20.4914 240.942 20.4914C240.917 20.4914 240.904 20.4914 240.904 20.4914C240.569 20.4914 240.159 20.3424 239.936 20.0443V21.6464H239.34V17.7716H239.861ZM240.793 19.9698C241.314 19.9698 241.65 19.6345 241.65 19.1129C241.65 18.6285 241.314 18.256 240.793 18.256C240.308 18.256 239.936 18.6285 239.936 19.1129C239.936 19.5972 240.308 19.9698 240.793 19.9698Z" fill="#636366"/>
<path d="M230.398 22.5776V25.2601H229.802V23.062H228.573V25.2601H227.939V22.5776H230.398Z" fill="#636366"/>
<path fill-rule="evenodd" clip-rule="evenodd" d="M244.929 23.4345C245.562 23.4345 245.972 23.7699 245.972 24.3287C245.972 24.9248 245.562 25.2601 244.929 25.2601H243.848V22.5776H244.37V23.4345H244.929ZM244.854 24.7385C245.189 24.7385 245.45 24.6268 245.45 24.3287C245.45 24.0679 245.189 23.9189 244.854 23.9189H244.332V24.7385H244.854Z" fill="#636366"/>
<path fill-rule="evenodd" clip-rule="evenodd" d="M233.229 22.615H233.751V25.2603H233.155V24.8505C232.931 25.1485 232.559 25.2975 232.186 25.2975C232.161 25.2975 232.149 25.2975 232.149 25.2975C231.776 25.2975 231.441 25.1485 231.255 24.925C231.23 24.925 231.218 24.925 231.218 24.925C231.193 24.9001 231.18 24.8877 231.18 24.8877C230.957 24.6269 230.845 24.3289 230.845 23.919C230.845 23.5465 230.957 23.2112 231.18 22.9504C231.18 22.9504 231.193 22.9504 231.218 22.9504C231.218 22.9504 231.23 22.9379 231.255 22.9131C231.478 22.6896 231.776 22.5405 232.149 22.5405C232.149 22.5405 232.161 22.5405 232.186 22.5405C232.559 22.5405 232.931 22.7268 233.155 22.9876L233.229 22.615ZM233.155 23.919C233.155 23.4347 232.82 23.0994 232.298 23.0994C231.814 23.0994 231.441 23.4347 231.441 23.919C231.441 24.4406 231.814 24.7759 232.298 24.7759C232.782 24.7759 233.155 24.4034 233.155 23.919Z" fill="#636366"/>
<path fill-rule="evenodd" clip-rule="evenodd" d="M234.869 22.5777L234.943 22.9503C235.167 22.6895 235.576 22.5032 235.912 22.5032C235.937 22.5032 235.949 22.5032 235.949 22.5032C236.322 22.5032 236.657 22.6522 236.88 22.8757C236.88 22.8757 236.88 22.8882 236.88 22.913C236.905 22.913 236.918 22.9254 236.918 22.9503C237.141 23.1738 237.253 23.5091 237.253 23.8817V23.9189C237.253 24.2915 237.141 24.6268 236.918 24.8504C236.918 24.8752 236.905 24.8876 236.88 24.8876C236.88 24.8876 236.88 24.9 236.88 24.9249C236.657 25.1484 236.322 25.2975 235.949 25.2975C235.949 25.2975 235.937 25.2975 235.912 25.2975C235.576 25.2975 235.167 25.1112 234.943 24.8504V26.4152H234.347V22.5777H234.869ZM235.8 24.7386C236.284 24.7386 236.657 24.4033 236.657 23.8817C236.657 23.3973 236.284 23.062 235.8 23.062C235.278 23.062 234.943 23.3973 234.943 23.8817C234.943 24.366 235.316 24.7386 235.8 24.7386Z" fill="#636366"/>
<path d="M240.793 24.7758C240.979 24.7385 241.202 24.6268 241.202 24.2169V22.5776H243.326V25.2974H242.73V23.0992H241.761V24.2169C241.761 24.9621 241.351 25.2974 240.755 25.2974L240.793 24.7758Z" fill="#636366"/>
<path fill-rule="evenodd" clip-rule="evenodd" d="M240.457 23.919C240.457 24.7387 239.861 25.2975 239.041 25.2975C238.222 25.2975 237.625 24.7014 237.625 23.919C237.625 23.1366 238.222 22.5405 239.041 22.5405C239.861 22.5405 240.457 23.1366 240.457 23.919ZM239.861 23.919C239.861 23.4347 239.526 23.0621 239.041 23.0621C238.557 23.0621 238.184 23.4347 238.184 23.919C238.184 24.4034 238.557 24.7759 239.041 24.7759C239.526 24.7759 239.861 24.4034 239.861 23.919Z" fill="#636366"/>
<path d="M18.8522 11.624L13.0028 25.5954H9.20262L6.33383 14.4556C6.29657 14.1948 6.22206 13.934 6.07303 13.7104C5.924 13.4869 5.70046 13.3378 5.47692 13.2261C4.35921 12.6672 3.16698 12.2946 1.9375 12.0339L2.01201 11.624H8.15942C8.56925 11.624 8.94182 11.7731 9.23988 12.0339C9.53793 12.2946 9.76147 12.6672 9.79873 13.0398L11.3263 21.1246L15.0892 11.624H18.8522Z" fill="#8F9194"/>
<path d="M24.0305 11.624L21.05 25.5581H17.436L20.4166 11.624H24.0305Z" fill="#8F9194"/>
<path d="M28.7623 15.4988C28.725 17.1754 33.792 17.3617 33.792 21.0501C33.792 23.9189 31.333 25.819 27.5328 25.819C26.1543 25.819 24.7758 25.5582 23.509 25.0739L24.1797 22.0188C25.2974 22.6149 26.5641 22.913 27.8681 22.8757C28.9113 22.8757 30.029 22.4659 30.029 21.5344C30.0663 20.9011 29.5074 20.454 28.1662 19.7834C26.7877 19.1127 24.9993 17.995 24.9993 15.9832C25.0366 13.2634 27.5328 11.3633 31.1095 11.3633C32.2644 11.3633 33.3821 11.5868 34.4626 11.9967L33.8292 14.94C32.7115 14.4184 31.482 14.1948 30.2898 14.3066C29.2094 14.4556 28.7623 14.9772 28.7623 15.4988Z" fill="#8F9194"/>
<path fill-rule="evenodd" clip-rule="evenodd" d="M43.6277 11.624L46.571 25.5954H43.2551L42.808 23.509H38.1882L37.443 25.5954H33.6428L39.0078 12.63C39.1569 12.3319 39.3431 12.0711 39.6412 11.8848C39.902 11.7358 40.2373 11.624 40.5726 11.624H43.6277ZM42.1747 20.6402L41.0942 15.387L39.1941 20.6402H42.1747Z" fill="#8F9194"/>
<path fill-rule="evenodd" clip-rule="evenodd" d="M51.377 16.8774H76.9353V29.6566H51.377V16.8774Z" fill="#8F9194"/>
<path fill-rule="evenodd" clip-rule="evenodd" d="M63.5979 7.675L62.3684 13.4126H60.8781L62.1076 7.675H63.5979ZM71.3101 12.5557H69.41L69.1119 13.4126H67.5471L69.7826 8.08483C69.8943 7.86129 70.1179 7.675 70.4159 7.675H71.6827L72.8749 13.4126H71.4964L71.3101 12.5557ZM71.0866 11.4007L70.6022 9.2398L69.8198 11.4007H71.0866ZM65.0882 13.5244C64.4175 13.4871 63.7842 13.3753 63.4116 13.189L63.7097 11.9596C64.045 12.1086 64.4548 12.3321 65.1999 12.2949C65.647 12.2949 66.0941 12.1458 66.0941 11.736C66.0941 11.5125 65.9078 11.3262 65.349 11.0281C64.7529 10.7673 64.0077 10.283 64.045 9.46334C64.045 8.34563 65.0882 7.56323 66.5412 7.56323C67.1001 7.56323 67.5844 7.71226 67.9197 7.82403L67.6589 9.05351C66.9883 8.75546 66.4294 8.75546 66.2059 8.79271C65.7588 8.82997 65.5725 9.05351 65.5725 9.27706C65.5725 9.94768 67.6589 10.0222 67.6589 11.5497C67.6589 12.742 66.6157 13.5244 65.0882 13.5244ZM61.5115 7.675L59.0898 13.4126H57.525L56.37 8.82997C56.2955 8.56917 56.221 8.4574 55.9975 8.34563C55.6249 8.12209 55.066 7.97306 54.5444 7.86129L54.5817 7.675H57.0779C57.4132 7.675 57.7113 7.89855 57.7858 8.27112L58.4192 11.587L59.9467 7.675H61.5115Z" fill="#8F9194"/>
<path fill-rule="evenodd" clip-rule="evenodd" d="M57.3382 23.9561C57.4873 24.0679 57.7481 24.1424 58.0089 24.1424C58.3442 24.1424 58.5677 23.9933 58.5677 23.7325C58.5677 23.5463 58.4187 23.3972 58.0461 23.2855C57.5618 23.0992 57.2637 22.8384 57.2637 22.4285C57.2637 21.9442 57.6363 21.6089 58.2697 21.6089C58.605 21.6089 58.8285 21.6834 58.9775 21.7207L58.8285 22.1677C58.754 22.1305 58.5305 22.0187 58.2697 22.0187C57.9343 22.0187 57.7853 22.205 57.7853 22.3913C57.7853 22.6148 57.9716 22.6893 58.3442 22.8384C58.8285 23.0619 59.0893 23.2855 59.0893 23.6953C59.0893 24.1796 58.754 24.5894 58.0089 24.5894C57.6735 24.5894 57.3755 24.4777 57.1892 24.4032L57.3382 23.9561Z" fill="#FFFFFE"/>
<path fill-rule="evenodd" clip-rule="evenodd" d="M61.1382 23.2483H60.0577V24.1052H61.2872V24.5523H59.5361V21.6462H61.2127V22.0561H60.0577V22.8385H61.1382V23.2483Z" fill="#FFFFFE"/>
<path fill-rule="evenodd" clip-rule="evenodd" d="M63.7838 24.4404C63.6347 24.5149 63.3739 24.5894 63.0014 24.5894C62.1072 24.5894 61.5483 23.9933 61.5483 23.1364C61.5483 22.1677 62.219 21.6089 63.0759 21.6089C63.4485 21.6089 63.672 21.6834 63.7838 21.7207L63.672 22.1305C63.5602 22.0932 63.3367 22.0187 63.1131 22.0187C62.517 22.0187 62.1072 22.3913 62.1072 23.0992C62.1072 23.7325 62.4798 24.1424 63.1131 24.1424C63.2994 24.1424 63.5602 24.1051 63.672 24.0306L63.7838 24.4404Z" fill="#FFFFFE"/>
<path fill-rule="evenodd" clip-rule="evenodd" d="M64.7156 21.6462V23.3228C64.7156 23.8817 64.9391 24.1425 65.3117 24.1425C65.6843 24.1425 65.9078 23.8817 65.9078 23.3228V21.6462H66.4294V23.2855C66.4294 24.1797 65.9823 24.5895 65.2744 24.5895C64.6038 24.5895 64.1567 24.217 64.1567 23.2855V21.6462H64.7156Z" fill="#FFFFFE"/>
<path fill-rule="evenodd" clip-rule="evenodd" d="M66.9875 21.6834C67.2111 21.6461 67.5091 21.6089 67.8072 21.6089C68.217 21.6089 68.4778 21.6834 68.7014 21.8324C68.8504 21.9815 68.9249 22.1677 68.9249 22.4285C68.9249 22.8011 68.7014 23.0619 68.4033 23.1737C68.6269 23.2482 68.7386 23.4345 68.8131 23.7325C68.9249 24.1051 68.9994 24.4404 69.0367 24.5522H68.5151C68.4406 24.4404 68.4033 24.2169 68.2915 23.8443C68.217 23.4717 68.1053 23.36 67.8072 23.36H67.5091V24.5522H66.9875V21.6834ZM67.5091 22.9501H67.8445C68.1798 22.9501 68.4033 22.7639 68.4033 22.4658C68.4033 22.1677 68.1798 22.0187 67.8445 22.0187C67.6706 22.0187 67.5588 22.0187 67.5091 22.0187V22.9501Z" fill="#FFFFFE"/>
<path fill-rule="evenodd" clip-rule="evenodd" d="M71.0112 23.2483H69.9308V24.1052H71.1603V24.5523H69.4092V21.6462H71.0857V22.0561H69.9308V22.8385H71.0112V23.2483Z" fill="#FFFFFE"/>
<path d="M106.853 27.6076H97.0173V9.94775H106.853V27.6076Z" fill="#8F9194"/>
<path d="M98.8056 23.6956C99.5507 25.2231 100.631 26.5271 101.935 27.6076C100.296 28.9116 98.3213 29.694 96.1976 29.9175C94.1112 30.1411 91.9876 29.7685 90.1247 28.8743C88.2246 27.9429 86.6226 26.4899 85.5048 24.7388C84.3871 22.9505 83.791 20.8641 83.791 18.7777C83.791 16.6913 84.3871 14.6049 85.5048 12.8166C86.6226 11.0655 88.2246 9.61246 90.1247 8.68103C91.9876 7.78686 94.1112 7.41429 96.1976 7.63783C98.3213 7.86138 100.296 8.64377 101.935 9.94777C100.631 11.0282 99.5507 12.3322 98.8056 13.8598C98.0605 15.3873 97.6506 17.0639 97.6506 18.7777C97.6506 20.4915 98.0605 22.1681 98.8056 23.6956Z" fill="#636366"/>
<path d="M120.117 18.7777C120.117 20.8641 119.521 22.9505 118.403 24.7388C117.285 26.5271 115.683 27.9429 113.783 28.8743C111.883 29.7685 109.759 30.1411 107.673 29.9175C105.586 29.694 103.612 28.9116 101.935 27.6076C103.277 26.5644 104.357 25.2231 105.102 23.6956C105.847 22.1681 106.22 20.4915 106.22 18.7777C106.22 17.0639 105.847 15.3873 105.102 13.8598C104.357 12.3322 103.277 11.0282 101.935 9.94777C103.612 8.64377 105.586 7.86138 107.673 7.63783C109.759 7.41429 111.883 7.78686 113.783 8.68103C115.683 9.61246 117.285 11.0282 118.403 12.8166C119.521 14.6049 120.117 16.6913 120.117 18.7777Z" fill="#C1C2C4"/>
<path fill-rule="evenodd" clip-rule="evenodd" d="M132.337 29.8057H131.853V24.2171H132.337V29.8057ZM135.877 24.2171C136.299 24.2171 136.721 24.2792 137.144 24.4034C137.479 24.5152 137.814 24.7015 138.075 24.9623C138.336 25.2231 138.559 25.5211 138.671 25.8565C138.969 26.6016 138.969 27.4212 138.671 28.1664C138.559 28.5017 138.336 28.7998 138.075 29.0606C137.814 29.2841 137.479 29.5076 137.144 29.6194C136.721 29.7436 136.299 29.8057 135.877 29.8057H133.828V24.2171H135.877ZM134.349 24.6642V29.3586H135.877C136.249 29.3586 136.61 29.2965 136.957 29.1723C137.255 29.073 137.516 28.9239 137.74 28.7252C137.963 28.5017 138.125 28.2533 138.224 27.9801C138.448 27.3467 138.448 26.6761 138.224 26.0427C138.112 25.7819 137.963 25.5211 137.74 25.2976C137.516 25.0989 137.255 24.9499 136.957 24.8505C136.61 24.7263 136.249 24.6642 135.877 24.6642H134.349ZM144.558 24.1426C144.806 24.1426 145.042 24.1675 145.266 24.2171C145.489 24.2668 145.7 24.3538 145.899 24.4779C146.073 24.5525 146.247 24.6642 146.421 24.8133C146.57 24.9623 146.706 25.1237 146.83 25.2976L146.421 25.5584C146.321 25.4094 146.209 25.2852 146.085 25.1858C145.936 25.0616 145.787 24.9623 145.638 24.8878C145.489 24.7884 145.315 24.7263 145.117 24.7015C144.943 24.6518 144.756 24.627 144.558 24.627C144.235 24.627 143.924 24.6891 143.626 24.8133C143.353 24.9126 143.105 25.0741 142.881 25.2976C142.682 25.4963 142.521 25.7447 142.397 26.0427C142.173 26.6761 142.173 27.3467 142.397 27.9801C142.521 28.2782 142.682 28.5265 142.881 28.7252C143.105 28.9488 143.353 29.1102 143.626 29.2096C143.924 29.3338 144.235 29.3959 144.558 29.3959C144.756 29.3959 144.943 29.371 145.117 29.3214C145.29 29.2965 145.464 29.2344 145.638 29.1351C145.787 29.0606 145.936 28.9612 146.085 28.837C146.209 28.7377 146.321 28.6135 146.421 28.4644L146.793 28.7252C146.694 28.8991 146.557 29.0606 146.383 29.2096C146.234 29.3586 146.06 29.4828 145.862 29.5822C145.663 29.6815 145.464 29.756 145.266 29.8057C144.632 29.9175 143.999 29.8802 143.44 29.6567C143.105 29.5076 142.807 29.3214 142.546 29.0606C142.273 28.8122 142.061 28.5141 141.912 28.1664C141.652 27.4212 141.652 26.6016 141.912 25.8565C142.061 25.5087 142.273 25.2107 142.546 24.9623C142.807 24.7015 143.105 24.5152 143.44 24.3662C143.813 24.2171 144.185 24.1426 144.558 24.1426ZM148.321 26.7134C148.395 26.5892 148.482 26.4774 148.581 26.3781C148.681 26.2787 148.793 26.2042 148.917 26.1545C149.016 26.1048 149.128 26.0676 149.252 26.0427C149.376 26.0179 149.513 26.0055 149.662 26.0055C149.861 25.9806 150.072 26.0055 150.295 26.08C150.469 26.1545 150.631 26.2539 150.78 26.3781C150.929 26.5271 151.04 26.6885 151.115 26.8624C151.189 27.0611 151.227 27.2722 151.227 27.4958V29.8057H150.78V27.6448C150.78 27.4709 150.755 27.2971 150.705 27.1232C150.655 26.9742 150.568 26.85 150.444 26.7506C150.345 26.6264 150.221 26.5395 150.072 26.4898C149.898 26.4401 149.724 26.4153 149.55 26.4153C149.401 26.4153 149.24 26.4526 149.066 26.5271C148.917 26.5768 148.793 26.6513 148.693 26.7506C148.569 26.8748 148.47 27.0114 148.395 27.1604C148.345 27.3095 148.321 27.4833 148.321 27.682V29.8057H147.874V24.0681H148.321V26.7134ZM153.909 26.0055C154.158 26.0055 154.394 26.0427 154.617 26.1173C154.816 26.2166 155.002 26.3532 155.176 26.5271C155.325 26.7009 155.449 26.8997 155.548 27.1232C155.623 27.3716 155.66 27.6324 155.66 27.9056C155.66 27.9304 155.66 27.9677 155.66 28.0174C155.66 28.0422 155.66 28.067 155.66 28.0919H152.531C152.531 28.2906 152.58 28.4893 152.68 28.688C152.754 28.837 152.854 28.9736 152.978 29.0978C153.127 29.222 153.276 29.3214 153.425 29.3959C153.599 29.4455 153.785 29.4704 153.984 29.4704C154.232 29.4704 154.468 29.4207 154.692 29.3214C154.89 29.222 155.077 29.0978 155.25 28.9488L155.474 29.2468C155.375 29.371 155.25 29.4704 155.101 29.5449C155.002 29.6194 154.878 29.6815 154.729 29.7312C154.605 29.7809 154.48 29.8181 154.356 29.843C154.207 29.8678 154.071 29.8802 153.946 29.8802C153.698 29.8802 153.45 29.8305 153.201 29.7312C152.978 29.6318 152.779 29.4952 152.605 29.3214C152.431 29.1475 152.295 28.9488 152.195 28.7252C152.096 28.4769 152.059 28.2161 152.084 27.9428C152.059 27.6696 152.096 27.4088 152.195 27.1604C152.295 26.9121 152.431 26.7009 152.605 26.5271C152.779 26.3532 152.978 26.2166 153.201 26.1173C153.425 26.0427 153.661 26.0055 153.909 26.0055ZM153.909 26.3781C153.735 26.3781 153.561 26.4153 153.388 26.4898C153.239 26.5643 153.102 26.6513 152.978 26.7506C152.854 26.8748 152.754 27.0114 152.68 27.1604C152.605 27.3343 152.556 27.5206 152.531 27.7193H155.213C155.188 27.5206 155.151 27.3343 155.101 27.1604C155.027 27.0114 154.928 26.8748 154.803 26.7506C154.679 26.6264 154.543 26.5395 154.394 26.4898C154.244 26.4153 154.083 26.3781 153.909 26.3781ZM158.268 26.0055C158.541 26.0055 158.802 26.0552 159.051 26.1545C159.299 26.2539 159.51 26.3905 159.684 26.5643L159.386 26.8996C159.237 26.7506 159.063 26.6264 158.864 26.5271C158.691 26.4526 158.492 26.4153 158.268 26.4153C158.07 26.4153 157.883 26.4526 157.709 26.5271C157.536 26.6016 157.387 26.7134 157.262 26.8624C157.113 26.9866 157.002 27.1356 156.927 27.3095C156.778 27.7317 156.778 28.1415 156.927 28.539C157.002 28.7128 157.101 28.8743 157.225 29.0233C157.374 29.1475 157.536 29.2468 157.709 29.3214C157.883 29.3959 158.07 29.4331 158.268 29.4331C158.492 29.4331 158.703 29.3959 158.902 29.3214C159.075 29.222 159.237 29.1102 159.386 28.986L159.684 29.2841C159.51 29.4828 159.299 29.6318 159.051 29.7312C158.566 29.9175 158.007 29.9175 157.523 29.7312C157.275 29.6318 157.064 29.4952 156.89 29.3214C156.716 29.1475 156.592 28.9364 156.517 28.688C156.331 28.2036 156.331 27.6448 156.517 27.1604C156.592 26.9369 156.716 26.7258 156.89 26.5271C157.064 26.3532 157.275 26.229 157.523 26.1545C157.771 26.0303 158.02 25.9806 158.268 26.0055ZM161.025 27.6448H161.659L163.223 26.0427H163.782L161.994 27.8311L163.82 29.8057H163.261L161.659 28.0546H161.025V29.8057H160.578V24.0681H161.025V27.6448Z" fill="#8F9194"/>
<path d="M140.31 15.6481H136.212V8.27124H140.31V15.6481Z" fill="#8F9194"/>
<path d="M136.957 14.0085C137.255 14.6419 137.702 15.2008 138.261 15.6479C137.553 16.1695 136.733 16.5048 135.876 16.6165C134.982 16.7283 134.125 16.542 133.343 16.1695C132.523 15.7969 131.89 15.2008 131.406 14.4556C130.959 13.7105 130.698 12.8163 130.698 11.9594C130.698 11.0652 130.959 10.2083 131.406 9.46319C131.89 8.71805 132.523 8.12194 133.343 7.74937C134.125 7.33954 134.982 7.19051 135.876 7.30228C136.733 7.3768 137.553 7.71211 138.261 8.27097C137.702 8.71805 137.255 9.27691 136.957 9.91028C136.622 10.5436 136.473 11.2515 136.473 11.9594C136.473 12.6673 136.622 13.3752 136.957 14.0085Z" fill="#636366"/>
<path d="M145.824 11.9594C145.824 12.8163 145.563 13.7105 145.116 14.4556C144.631 15.2008 143.961 15.7969 143.178 16.1695C142.396 16.542 141.502 16.7283 140.645 16.6165C139.788 16.5048 138.931 16.1695 138.26 15.6479C138.819 15.2008 139.266 14.6419 139.564 14.0085C139.863 13.3752 140.049 12.6673 140.049 11.9594C140.049 11.2515 139.863 10.5436 139.564 9.91028C139.266 9.27691 138.819 8.71805 138.26 8.27097C138.931 7.71211 139.788 7.3768 140.645 7.30228C141.502 7.19051 142.396 7.33954 143.178 7.74937C143.961 8.12194 144.631 8.71805 145.116 9.46319C145.563 10.2083 145.824 11.0652 145.824 11.9594Z" fill="#C1C2C4"/>
<path d="M145.34 14.8657V14.7167H145.265V14.6794H145.414V14.7167H145.377V14.8657H145.34ZM145.638 14.8657V14.7167L145.563 14.8285L145.489 14.7167V14.8657H145.452V14.6794H145.526L145.563 14.7912L145.601 14.6794H145.675V14.8657H145.638Z" fill="#F79E1B"/>
</g>
<defs>
<clipPath id="clip0_2430_6724">
<rect width="345" height="37.257" fill="white"/>
</clipPath>
</defs>
</svg>
