<svg width="37" height="12" viewBox="0 0 37 12" fill="none" xmlns="http://www.w3.org/2000/svg">
<g clip-path="url(#clip0_2558_9774)">
<path d="M24.0677 0.0185547C21.4462 0.0185547 19.1033 1.37755 19.1033 3.88784C19.1033 6.76698 23.2583 6.96583 23.2583 8.41242C23.2583 9.02151 22.5605 9.56666 21.3682 9.56666C19.6766 9.56666 18.4122 8.80493 18.4122 8.80493L17.8711 11.3385C17.8711 11.3385 19.3277 11.982 21.2614 11.982C24.1276 11.982 26.3832 10.5564 26.3832 8.00291C26.3832 4.96041 22.2109 4.76748 22.2109 3.42511C22.2109 2.94796 22.7837 2.42536 23.9724 2.42536C25.3136 2.42536 26.4076 2.97938 26.4076 2.97938L26.9372 0.532661C26.9372 0.532661 25.7464 0.0185547 24.0673 0.0185547H24.0677ZM0.082125 0.203352L0.0185547 0.572577C0.0185547 0.572577 1.12143 0.774376 2.1149 1.17723C3.39406 1.63886 3.48498 1.90792 3.70046 2.74247L6.04775 11.7913H9.19448L14.0421 0.203352H10.9027L7.78781 8.082L6.51677 1.40343C6.40035 0.639104 5.80973 0.202982 5.08718 0.202982H0.0824946L0.082125 0.203352ZM15.3046 0.203352L12.842 11.7913H15.8357L18.2895 0.203352H15.3046ZM32.0014 0.203352C31.2796 0.203352 30.8971 0.589948 30.6166 1.2652L26.2306 11.7913H29.3699L29.9772 10.0368H33.8017L34.171 11.7913H36.9411L34.5247 0.203352H32.0014ZM32.4098 3.33419L33.3405 7.68247H30.8476L32.4102 3.33419H32.4098Z" fill="#1434CB"/>
</g>
<defs>
<clipPath id="clip0_2558_9774">
<rect width="36.9595" height="12" fill="white"/>
</clipPath>
</defs>
</svg>
