<svg width="55" height="53" viewBox="0 0 67 68" fill="none" xmlns="http://www.w3.org/2000/svg">
<g filter="url(#filter0_d_2830_7906)">
<circle cx="33.5" cy="45" r="16" fill="white"/>
</g>
<rect x="19.5" y="31" width="28" height="28" rx="14" fill="#008C92"/>
<g clip-path="url(#clip0_2830_7906)">
<g clip-path="url(#clip1_2830_7906)">
<path d="M34.7413 39.8525L32.505 44.9248L33.2316 44.9229L37.1525 44.9297L32.3253 55.8789V52.5225L34.7413 47.043H29.0353L34.7413 34.1006V39.8525Z" fill="white"/>
<path fill-rule="evenodd" clip-rule="evenodd" d="M33.3725 44.9227L32.5051 44.9243L34.7413 39.8525V41.818L33.3725 44.9227Z" fill="white" fill-opacity="0.35"/>
<path fill-rule="evenodd" clip-rule="evenodd" d="M33.1918 55.8786H32.3253L37.1524 44.9296L38.0211 44.9246L33.1918 55.8786Z" fill="white" fill-opacity="0.35"/>
</g>
</g>
<g filter="url(#filter1_d_2830_7906)">
<rect x="12" y="8" width="43" height="18" rx="9" fill="white"/>
<path d="M22.37 22V20.5718H25.0361C25.5904 20.5718 26.0115 20.4575 26.2992 20.229C26.5912 20.0005 26.7372 19.6683 26.7372 19.2324V19.2197C26.7372 18.9362 26.6695 18.6971 26.5341 18.5024C26.4029 18.3078 26.2061 18.1618 25.9438 18.0645C25.6856 17.9629 25.3682 17.9121 24.9916 17.9121H22.37V16.6489H24.7695C25.2857 16.6489 25.6814 16.5452 25.9565 16.3379C26.2315 16.1305 26.3691 15.8385 26.3691 15.4619V15.4492C26.3691 15.0768 26.2421 14.7869 25.9882 14.5796C25.7385 14.368 25.3852 14.2622 24.9281 14.2622H22.37V12.8403H25.4169C26.0136 12.8403 26.5214 12.9334 26.9404 13.1196C27.3635 13.3016 27.6873 13.564 27.9115 13.9067C28.1401 14.2453 28.2543 14.6494 28.2543 15.1191V15.1318C28.2543 15.4535 28.1803 15.7539 28.0321 16.0332C27.8883 16.3125 27.6915 16.5452 27.4418 16.7314C27.1921 16.9176 26.9107 17.034 26.5976 17.0806V17.1948C27.0038 17.2244 27.3635 17.3387 27.6767 17.5376C27.9941 17.7365 28.2416 17.9946 28.4194 18.312C28.6013 18.6294 28.6923 18.9827 28.6923 19.3721V19.3848C28.6923 19.918 28.5632 20.3813 28.3051 20.7749C28.0512 21.1642 27.6873 21.4668 27.2133 21.6826C26.7436 21.8942 26.1807 22 25.5248 22H22.37ZM21.4115 22V12.8403H23.3285V22H21.4115ZM31.3037 19.1118V17.6138H33.6523C34.2025 17.6138 34.6299 17.4741 34.9346 17.1948C35.2435 16.9113 35.3979 16.5093 35.3979 15.9888V15.9761C35.3979 15.4556 35.2435 15.0557 34.9346 14.7764C34.6299 14.4971 34.2025 14.3574 33.6523 14.3574H31.3037V12.8403H34.1221C34.7653 12.8403 35.3281 12.9715 35.8105 13.2339C36.293 13.492 36.6675 13.856 36.9341 14.3257C37.2049 14.7954 37.3403 15.3434 37.3403 15.9697V15.9824C37.3403 16.613 37.2049 17.1631 36.9341 17.6328C36.6675 18.1025 36.293 18.4665 35.8105 18.7246C35.3281 18.9827 34.7653 19.1118 34.1221 19.1118H31.3037ZM30.3452 22V12.8403H32.2622V22H30.3452ZM42.3004 22.2349C41.5725 22.2349 40.9399 22.1248 40.4024 21.9048C39.865 21.6847 39.4418 21.3758 39.1329 20.978C38.8282 20.576 38.6568 20.1042 38.6187 19.5625L38.6124 19.4609H40.4596L40.4659 19.5244C40.4913 19.7529 40.5844 19.9539 40.7452 20.1274C40.9102 20.2967 41.1303 20.43 41.4054 20.5273C41.6804 20.6247 41.9957 20.6733 42.3512 20.6733C42.6939 20.6733 42.9944 20.6226 43.2525 20.521C43.5107 20.4194 43.7117 20.2798 43.8555 20.1021C44.0037 19.9201 44.0777 19.7127 44.0777 19.48V19.4736C44.0777 19.1732 43.955 18.932 43.7096 18.75C43.4683 18.568 43.0621 18.4178 42.4908 18.2993L41.526 18.1025C40.5738 17.9079 39.8819 17.5884 39.4503 17.144C39.0186 16.6997 38.8028 16.1305 38.8028 15.4365V15.4302C38.8028 14.8631 38.953 14.368 39.2535 13.9448C39.554 13.5216 39.9665 13.1937 40.4913 12.9609C41.016 12.724 41.6169 12.6055 42.294 12.6055C43.005 12.6055 43.6143 12.7218 44.1221 12.9546C44.6342 13.1831 45.0341 13.4984 45.3219 13.9004C45.6096 14.2982 45.7725 14.7531 45.8106 15.2651L45.817 15.3477H44.0142L44.0015 15.2715C43.9635 15.0514 43.8704 14.8589 43.7222 14.6938C43.5784 14.5288 43.3837 14.3997 43.1383 14.3066C42.8971 14.2093 42.6156 14.1606 42.294 14.1606C41.9809 14.1606 41.7058 14.2072 41.4688 14.3003C41.2318 14.3934 41.0478 14.5246 40.9166 14.6938C40.7854 14.8589 40.7198 15.0557 40.7198 15.2842V15.2905C40.7198 15.5868 40.8383 15.8301 41.0753 16.0205C41.3165 16.2067 41.7058 16.3548 42.2432 16.4648L43.2144 16.6616C43.8619 16.7928 44.3888 16.9705 44.795 17.1948C45.2055 17.4191 45.5081 17.7005 45.7027 18.0391C45.8974 18.3776 45.9947 18.786 45.9947 19.2642V19.2705C45.9947 19.8757 45.8445 20.4004 45.544 20.8447C45.2478 21.2848 44.8225 21.6276 44.2681 21.873C43.718 22.1143 43.0621 22.2349 42.3004 22.2349Z" fill="black"/>
</g>
<defs>
<filter id="filter0_d_2830_7906" x="11.5" y="24" width="44" height="44" filterUnits="userSpaceOnUse" color-interpolation-filters="sRGB">
<feFlood flood-opacity="0" result="BackgroundImageFix"/>
<feColorMatrix in="SourceAlpha" type="matrix" values="0 0 0 0 0 0 0 0 0 0 0 0 0 0 0 0 0 0 127 0" result="hardAlpha"/>
<feOffset dy="1"/>
<feGaussianBlur stdDeviation="3"/>
<feComposite in2="hardAlpha" operator="out"/>
<feColorMatrix type="matrix" values="0 0 0 0 0 0 0 0 0 0 0 0 0 0 0 0 0 0 0.4 0"/>
<feBlend mode="normal" in2="BackgroundImageFix" result="effect1_dropShadow_2830_7906"/>
<feBlend mode="normal" in="SourceGraphic" in2="effect1_dropShadow_2830_7906" result="shape"/>
</filter>
<filter id="filter1_d_2830_7906" x="0" y="0" width="67" height="42" filterUnits="userSpaceOnUse" color-interpolation-filters="sRGB">
<feFlood flood-opacity="0" result="BackgroundImageFix"/>
<feColorMatrix in="SourceAlpha" type="matrix" values="0 0 0 0 0 0 0 0 0 0 0 0 0 0 0 0 0 0 127 0" result="hardAlpha"/>
<feOffset dy="4"/>
<feGaussianBlur stdDeviation="6"/>
<feComposite in2="hardAlpha" operator="out"/>
<feColorMatrix type="matrix" values="0 0 0 0 0 0 0 0 0 0 0 0 0 0 0 0 0 0 0.12 0"/>
<feBlend mode="normal" in2="BackgroundImageFix" result="effect1_dropShadow_2830_7906"/>
<feBlend mode="normal" in="SourceGraphic" in2="effect1_dropShadow_2830_7906" result="shape"/>
</filter>
<clipPath id="clip0_2830_7906">
<rect width="22" height="22" fill="white" transform="translate(22.5 34)"/>
</clipPath>
<clipPath id="clip1_2830_7906">
<rect width="10.5056" height="23.375" fill="white" transform="translate(28.2471 33.3125)"/>
</clipPath>
</defs>
</svg>
